<svg xmlns="http://www.w3.org/2000/svg" xmlns:xlink="http://www.w3.org/1999/xlink" id="layer_1" x="0" y="0" version="1.1" viewBox="0 0 900 600" xml:space="preserve" style="enable-background:new 0 0 900 600"><style type="text/css">.st0{fill:url(#SVGID_3_)}.st0,.st1{clip-path:url(#SVGID_2_)}.st2{fill:url(#SVGID_5_)}.st3{fill:url(#SVGID_6_)}.st4{fill:url(#SVGID_7_)}.st5{fill:url(#SVGID_8_)}.st6{fill:url(#SVGID_9_)}.st7{fill:url(#SVGID_10_)}.st8{fill:url(#SVGID_11_)}.st9{fill:url(#SVGID_12_)}.st10{fill:url(#SVGID_13_)}.st11{fill:url(#SVGID_14_)}.st12{fill:url(#SVGID_15_)}.st13{fill:url(#SVGID_16_)}.st14{fill:url(#SVGID_17_)}.st15{fill:url(#SVGID_18_)}.st16{fill:url(#SVGID_19_)}.st17{fill:url(#SVGID_20_)}.st18{fill:#02247d}.st19{fill:#0ff}.st20{fill:none}.st21{fill:url(#SVGID_22_)}.st22{fill:url(#SVGID_23_)}.st23{fill:url(#SVGID_24_)}.st24{fill:url(#SVGID_25_)}.st25{fill:url(#SVGID_26_)}.st26{fill:url(#SVGID_27_)}.st27{fill:url(#SVGID_28_)}.st28{fill:url(#SVGID_29_)}.st29{fill:url(#SVGID_30_)}.st30{fill:url(#SVGID_31_)}.st31{fill:url(#SVGID_32_)}.st32{fill:#00d0ff}.st33{fill:url(#SVGID_33_)}.st34{fill:url(#SVGID_34_)}.st35{fill:url(#SVGID_35_)}.st36{fill:url(#SVGID_36_)}.st37{fill:#e5e9ff}.st38{fill:url(#SVGID_37_)}.st39{fill:url(#SVGID_38_)}.st40{fill:url(#SVGID_39_)}.st41{fill:url(#SVGID_40_)}.st42{fill:url(#SVGID_41_)}.st43{fill:url(#SVGID_42_)}.st44{fill:url(#SVGID_43_)}.st45{fill:url(#SVGID_44_)}.st46{fill:url(#SVGID_45_)}.st47{fill:url(#SVGID_46_)}.st48{fill:url(#SVGID_47_)}.st49{fill:url(#SVGID_48_)}.st50{fill:url(#SVGID_49_)}.st51{fill:url(#SVGID_50_)}.st52{fill:url(#SVGID_51_)}.st53{fill:url(#SVGID_52_)}.st54{fill:url(#SVGID_53_)}.st55{fill:url(#SVGID_54_)}.st56{fill:url(#SVGID_55_)}.st57{fill:url(#SVGID_56_)}.st58{fill:url(#SVGID_57_)}.st59{fill:url(#SVGID_58_)}.st60{fill:url(#SVGID_59_)}.st61{fill:url(#SVGID_60_)}.st62{fill:url(#SVGID_61_)}.st63{fill:url(#SVGID_62_)}.st64{fill:url(#SVGID_63_)}.st65{fill:url(#SVGID_64_)}.st66{fill:url(#SVGID_65_)}.st67{fill:url(#SVGID_66_)}.st68{fill:url(#SVGID_67_)}.st69{fill:url(#SVGID_68_)}.st70{fill:url(#SVGID_69_)}.st71{fill:url(#SVGID_70_)}.st72{fill:url(#SVGID_71_)}.st73{fill:url(#SVGID_72_)}.st74{fill:url(#SVGID_73_)}.st75{fill:url(#SVGID_74_)}.st76{fill:url(#SVGID_75_)}.st77{fill:url(#SVGID_76_)}.st78{fill:url(#SVGID_77_)}.st79{fill:url(#SVGID_78_)}.st80{fill:url(#SVGID_79_)}.st81{fill:url(#SVGID_80_)}.st82{fill:url(#SVGID_81_)}.st83{fill:url(#SVGID_82_)}.st84{fill:url(#SVGID_83_)}.st85{fill:url(#SVGID_84_)}.st86{fill:url(#SVGID_85_)}.st87{fill:url(#SVGID_86_)}.st88{fill-rule:evenodd;clip-rule:evenodd;fill:#02247d}.st89{fill:url(#SVGID_87_)}.st90{fill:url(#SVGID_88_)}.st90,.st91,.st92{fill-rule:evenodd;clip-rule:evenodd}.st91{fill:url(#SVGID_89_)}.st92{fill:url(#SVGID_90_)}.st93{fill:url(#SVGID_91_)}.st94{fill:url(#SVGID_92_)}.st95{fill:url(#SVGID_93_)}.st96{fill:url(#SVGID_94_)}.st97{fill:url(#SVGID_95_)}.st98{fill:url(#SVGID_96_)}.st99{fill:url(#SVGID_97_)}.st100{fill:url(#SVGID_98_)}.st101{fill:url(#SVGID_99_)}.st102{fill:url(#SVGID_100_)}.st103{fill:url(#SVGID_101_)}.st104{fill:url(#SVGID_102_)}.st105{fill:url(#SVGID_103_)}.st106{fill:url(#SVGID_104_)}.st107{fill:url(#SVGID_105_)}.st108{fill:url(#SVGID_106_)}.st109{fill:url(#SVGID_107_)}.st110{fill:url(#SVGID_108_)}.st111{fill:url(#SVGID_109_)}.st112{fill:url(#SVGID_110_)}.st113{fill:url(#SVGID_111_)}.st114{fill:url(#SVGID_112_)}.st115{fill:url(#SVGID_113_)}.st116{fill:url(#SVGID_114_)}.st117{fill:url(#SVGID_115_)}.st118{fill:url(#SVGID_116_)}.st119{fill:url(#SVGID_117_)}.st120{fill:url(#SVGID_118_)}.st121{fill:url(#SVGID_119_)}.st122{fill:url(#SVGID_120_)}.st123{fill:url(#SVGID_121_)}.st124{fill:url(#SVGID_122_)}.st125{fill:url(#SVGID_123_)}.st126{fill:url(#SVGID_124_)}.st127{fill:url(#SVGID_125_)}.st128{fill:url(#SVGID_126_)}.st129{fill:url(#SVGID_127_)}.st130{fill:url(#SVGID_128_)}.st131{fill:url(#SVGID_129_)}.st132{fill:url(#SVGID_130_)}.st133{fill:url(#SVGID_131_)}.st134{fill:url(#SVGID_132_)}.st135{fill:url(#SVGID_133_)}.st136{fill:url(#SVGID_134_)}.st137{fill:url(#SVGID_135_)}.st138{fill:url(#SVGID_136_)}.st139{fill:url(#SVGID_137_)}.st140{fill:url(#SVGID_138_)}.st141{fill:url(#SVGID_139_)}.st142{fill:#2143af}.st143{fill:url(#SVGID_140_)}.st144{fill:url(#SVGID_141_)}.st145{fill:url(#SVGID_142_)}.st146{fill:url(#SVGID_143_)}.st147{fill:url(#SVGID_144_)}.st148{fill:url(#SVGID_145_)}.st149{fill:url(#SVGID_146_)}.st150{fill:url(#SVGID_147_)}.st151{fill:url(#SVGID_148_)}.st152{fill:url(#SVGID_149_)}.st153{fill:url(#SVGID_150_)}.st154{fill:url(#SVGID_151_)}.st155{fill:url(#SVGID_152_)}.st156{fill:url(#SVGID_153_)}.st157{fill:url(#SVGID_154_)}.st158{fill:url(#SVGID_155_)}.st159{fill:url(#SVGID_156_)}.st160{opacity:.4;fill:#e5e9ff}.st161{fill:url(#SVGID_157_)}.st162{fill:url(#SVGID_158_)}.st163{fill:url(#SVGID_159_)}.st164{fill:url(#SVGID_160_)}.st165{fill:url(#SVGID_161_)}.st166{fill:url(#SVGID_162_)}.st167{fill:url(#SVGID_163_)}.st168{fill:url(#SVGID_164_)}.st169{fill:url(#SVGID_165_)}.st170{fill:#7d41da}</style><g><defs><rect id="SVGID_1_" width="900" height="600" y="0"/></defs><clipPath id="SVGID_2_"><use xlink:href="#SVGID_1_" style="overflow:visible"/></clipPath><linearGradient id="SVGID_3_" x1="825" x2="75" y1="-75" y2="675" gradientUnits="userSpaceOnUse"><stop offset="0" style="stop-color:#7f41db"/><stop offset=".474" style="stop-color:#3532b1"/><stop offset=".785" style="stop-color:#092998"/><stop offset="1" style="stop-color:#022894"/></linearGradient><rect width="900" height="600" y="0" class="st0"/><g class="st1"><linearGradient id="SVGID_5_" x1="1604.711" x2="2253.646" y1="1674.727" y2="1674.727" gradientTransform="matrix(-1 0 0 -1 2305.6582 2137.0195)" gradientUnits="userSpaceOnUse"><stop offset="0" style="stop-color:#7f41db"/><stop offset="1" style="stop-color:#022894"/></linearGradient><path d="M67.95,510.1h617.06c8.8,0,15.94-7.13,15.94-15.94l0,0c0-8.8-7.13-15.94-15.94-15.94h-73.36 c-8.8,0-15.94-7.14-15.94-15.94l0,0c0-8.8,7.13-15.94,15.94-15.94h45.22c8.8,0,15.94-7.13,15.94-15.94v0 c0-8.8-7.13-15.94-15.94-15.94H78.18c-8.8,0-15.94,7.13-15.94,15.94v0c0,8.8,7.13,15.94,15.94,15.94h2.5 c8.8,0,15.94,7.13,15.94,15.94l0,0c0,8.8-7.13,15.94-15.94,15.94H67.95c-8.8,0-15.94,7.13-15.94,15.94l0,0 C52.01,502.97,59.15,510.1,67.95,510.1z" class="st2"/><g><g><g><linearGradient id="SVGID_6_" x1="463.416" x2="545.184" y1="300.39" y2="300.39" gradientUnits="userSpaceOnUse"><stop offset="0" style="stop-color:#964ae2"/><stop offset="1" style="stop-color:#03ffff"/></linearGradient><path d="M521.44,170.06c0.04,0.26,0.34,0.52,0.34,0.79v39.05c0,2.9-2.63,5.2-5.53,5.2l-23.95,0.05 c-2.9,0-5.29-2.3-5.29-5.2v-39.1c0-0.27-0.08-0.53-0.04-0.78c-14.1,6.16-23.55,19.66-23.55,35.34c0,15.44,10.78,31,23.59,38.53 v169.42c0,9.82,6.95,17.37,16.77,17.37h0.04c9.82,0,17.96-7.55,17.96-17.37V243.93c14.64-7.53,23.4-23.08,23.4-38.53 C545.18,189.73,535.54,176.22,521.44,170.06z M504.01,420.6c-3.8,0-6.88-3.08-6.88-6.88c0-3.8,3.08-6.88,6.88-6.88 c3.8,0,6.88,3.08,6.88,6.88C510.89,417.52,507.81,420.6,504.01,420.6z" class="st3"/><linearGradient id="SVGID_7_" x1="462.416" x2="546.184" y1="300.07" y2="300.07" gradientUnits="userSpaceOnUse"><stop offset="0" style="stop-color:#03f3f8"/><stop offset="1" style="stop-color:#7f41db"/></linearGradient><path d="M503.82,431.72c-10.17,0-17.81-7.9-17.81-18.37V244.5c-13.92-8.41-23.59-24.4-23.59-39.09 c0-15.62,9.48-29.85,24.15-36.26l1.66-0.72l-0.27,1.79c0,0.06,0.01,0.13,0.02,0.19c0.02,0.15,0.03,0.29,0.03,0.44v39.1 c0,2.32,1.92,4.2,4.29,4.2l23.95-0.05c2.46,0,4.53-1.92,4.53-4.2v-38.91c-0.01-0.01-0.02-0.03-0.03-0.04 c-0.1-0.17-0.26-0.42-0.3-0.74l-0.26-1.79l1.65,0.72c14.79,6.46,24.34,20.69,24.34,36.26c0,16.26-9.17,31.55-23.4,39.13v168.81 C522.78,423.48,514.27,431.72,503.82,431.72z M486.01,171.6c-13.36,6.41-21.59,19.24-21.59,33.8c0,14.19,9.5,29.68,23.1,37.66 l0.49,0.29v169.99c0,9.49,6.63,16.37,15.77,16.37c9.55,0,17.01-7.19,17.01-16.37V243.32l0.54-0.28 c13.89-7.14,22.86-21.91,22.86-37.64c0-14.15-8.34-27.15-21.4-33.61v38.11c0,3.36-2.99,6.2-6.53,6.2l-23.95,0.05 c-3.47,0-6.29-2.78-6.29-6.2V171.6z M504.01,421.6L504.01,421.6c-4.35,0-7.88-3.54-7.88-7.88c0-4.35,3.54-7.88,7.88-7.88 c0,0,0,0,0,0c2.11,0,4.08,0.82,5.57,2.31c1.49,1.49,2.31,3.47,2.31,5.58c0,2.11-0.82,4.08-2.31,5.57 C508.1,420.78,506.12,421.6,504.01,421.6z M504.01,407.84C504.01,407.84,504.01,407.84,504.01,407.84 c-3.25,0-5.88,2.64-5.88,5.88c0,3.24,2.64,5.88,5.88,5.88c1.57,0,3.05-0.61,4.16-1.72c1.11-1.11,1.72-2.59,1.72-4.16 c0-1.57-0.61-3.05-1.72-4.16C507.06,408.45,505.58,407.84,504.01,407.84z" class="st4"/></g></g></g><g><g><linearGradient id="SVGID_8_" x1="171.575" x2="259.772" y1="467.851" y2="467.851" gradientUnits="userSpaceOnUse"><stop offset="0" style="stop-color:#03bef2"/><stop offset="1" style="stop-color:#964ae2"/></linearGradient><rect width="88.2" height="2" x="171.57" y="466.85" class="st5"/></g><g><linearGradient id="SVGID_9_" x1="166.536" x2="361.884" y1="455.802" y2="455.802" gradientUnits="userSpaceOnUse"><stop offset="0" style="stop-color:#03bef2"/><stop offset="1" style="stop-color:#964ae2"/></linearGradient><rect width="195.35" height="2" x="166.54" y="454.8" class="st6"/></g><g><linearGradient id="SVGID_10_" x1="292.5" x2="322.426" y1="467.851" y2="467.851" gradientUnits="userSpaceOnUse"><stop offset="0" style="stop-color:#03bef2"/><stop offset="1" style="stop-color:#964ae2"/></linearGradient><rect width="29.93" height="2" x="292.5" y="466.85" class="st7"/></g><g><linearGradient id="SVGID_11_" x1="137.845" x2="155.578" y1="467.851" y2="467.851" gradientUnits="userSpaceOnUse"><stop offset="0" style="stop-color:#03bef2"/><stop offset="1" style="stop-color:#964ae2"/></linearGradient><rect width="17.73" height="2" x="137.84" y="466.85" class="st8"/></g><g><linearGradient id="SVGID_12_" x1="446.334" x2="498.101" y1="476.798" y2="476.798" gradientUnits="userSpaceOnUse"><stop offset="0" style="stop-color:#03bef2"/><stop offset="1" style="stop-color:#964ae2"/></linearGradient><rect width="51.77" height="2" x="446.33" y="475.8" class="st9"/></g><g><linearGradient id="SVGID_13_" x1="367.698" x2="385.264" y1="477.798" y2="477.798" gradientUnits="userSpaceOnUse"><stop offset="0" style="stop-color:#03bef2"/><stop offset="1" style="stop-color:#964ae2"/></linearGradient><rect width="17.57" height="2" x="367.7" y="476.8" class="st10"/></g><g><linearGradient id="SVGID_14_" x1="426.536" x2="436.945" y1="476.798" y2="476.798" gradientUnits="userSpaceOnUse"><stop offset="0" style="stop-color:#03bef2"/><stop offset="1" style="stop-color:#964ae2"/></linearGradient><rect width="10.41" height="2" x="426.54" y="475.8" class="st11"/></g><g><g><linearGradient id="SVGID_15_" x1="537.559" x2="567.712" y1="470.344" y2="470.344" gradientUnits="userSpaceOnUse"><stop offset="0" style="stop-color:#03bef2"/><stop offset="1" style="stop-color:#964ae2"/></linearGradient><rect width="30.15" height="2" x="537.56" y="469.34" class="st12"/></g><g><linearGradient id="SVGID_16_" x1="578.901" x2="589.131" y1="470.344" y2="470.344" gradientUnits="userSpaceOnUse"><stop offset="0" style="stop-color:#03bef2"/><stop offset="1" style="stop-color:#964ae2"/></linearGradient><rect width="10.23" height="2" x="578.9" y="469.34" class="st13"/></g><g><linearGradient id="SVGID_17_" x1="526.028" x2="532.09" y1="470.344" y2="470.344" gradientUnits="userSpaceOnUse"><stop offset="0" style="stop-color:#03bef2"/><stop offset="1" style="stop-color:#964ae2"/></linearGradient><rect width="6.06" height="2" x="526.03" y="469.34" class="st14"/></g></g><g><g><linearGradient id="SVGID_18_" x1="381.682" x2="399.924" y1="462.184" y2="462.184" gradientUnits="userSpaceOnUse"><stop offset="0" style="stop-color:#03bef2"/><stop offset="1" style="stop-color:#964ae2"/></linearGradient><rect width="18.24" height="2" x="381.68" y="461.18" class="st15"/></g><g><linearGradient id="SVGID_19_" x1="408.559" x2="416.454" y1="462.184" y2="462.184" gradientUnits="userSpaceOnUse"><stop offset="0" style="stop-color:#03bef2"/><stop offset="1" style="stop-color:#964ae2"/></linearGradient><rect width="7.89" height="2" x="408.56" y="461.18" class="st16"/></g></g><g><g><linearGradient id="SVGID_20_" x1="539.361" x2="591.213" y1="488.511" y2="488.511" gradientUnits="userSpaceOnUse"><stop offset="0" style="stop-color:#03bef2"/><stop offset="1" style="stop-color:#964ae2"/></linearGradient><rect width="51.85" height="2" x="539.36" y="487.51" class="st17"/></g></g></g><g><g><rect width="7.96" height="13.92" x="168.21" y="145.01" class="st18"/><path d="M177.16,159.93h-9.96v-15.92h9.96V159.93z M169.21,157.93h5.96v-11.92h-5.96V157.93z" class="st19"/></g><g><rect width="7.96" height="22.65" x="179.39" y="136.28" class="st18"/><path d="M188.35,159.93h-9.96v-24.65h9.96V159.93z M180.39,157.93h5.96v-20.65h-5.96V157.93z" class="st19"/></g><g><rect width="7.96" height="28.69" x="190.58" y="130.25" class="st18"/><path d="M199.54,159.93h-9.96v-30.69h9.96V159.93z M191.58,157.93h5.96v-26.69h-5.96V157.93z" class="st19"/></g><g><rect width="7.96" height="35.98" x="201.77" y="122.95" class="st18"/><path d="M210.72,159.93h-9.96v-37.98h9.96V159.93z M202.77,157.93h5.96v-33.98h-5.96V157.93z" class="st19"/></g></g><g><g id="XMLID_339_"><defs><path id="SVGID_4_" d="M467.34,96.26v323.19c0,9.81-7.94,17.76-17.75,17.76H303.38c-9.8,0-17.76-7.95-17.76-17.76V96.26 c0-9.81,7.96-17.76,17.76-17.76h35.12v6.01c0,4.97,4.03,8.99,8.99,8.99h72.4c4.96,0,8.99-4.02,8.99-8.99V78.5h20.72 C459.4,78.5,467.34,86.45,467.34,96.26z"/></defs><clipPath id="SVGID_21_"><use xlink:href="#SVGID_4_" style="overflow:visible"/></clipPath></g><path id="XMLID_338_" d="M467.34,96.26v323.19c0,9.81-7.94,17.76-17.75,17.76H303.38c-9.8,0-17.76-7.95-17.76-17.76 V96.26c0-9.81,7.96-17.76,17.76-17.76h35.12v6.01c0,4.97,4.03,8.99,8.99,8.99h72.4c4.96,0,8.99-4.02,8.99-8.99V78.5h20.72 C459.4,78.5,467.34,86.45,467.34,96.26z" class="st20"/><g><g><g><g><linearGradient id="SVGID_22_" x1="285.619" x2="467.342" y1="257.86" y2="257.86" gradientUnits="userSpaceOnUse"><stop offset="0" style="stop-color:#7f41db"/><stop offset="1" style="stop-color:#02247d"/></linearGradient><path d="M467.34,96.26v323.2c0,9.81-7.94,17.76-17.75,17.76H303.38c-9.8,0-17.76-7.95-17.76-17.76V96.26 c0-9.81,7.96-17.76,17.76-17.76h27.91v6c0,4.97,4.03,8.99,8.99,8.99h72.4c4.96,0,8.99-4.02,8.99-8.99v-6h27.92 C459.4,78.5,467.34,86.45,467.34,96.26z" class="st21"/><linearGradient id="SVGID_23_" x1="284.119" x2="468.842" y1="257.86" y2="257.86" gradientUnits="userSpaceOnUse"><stop offset="0" style="stop-color:#02247d"/><stop offset=".193" style="stop-color:#024792"/><stop offset=".616" style="stop-color:#039ec6"/><stop offset="1" style="stop-color:#03f3f8"/></linearGradient><path d="M449.6,438.72H303.38c-10.62,0-19.26-8.64-19.26-19.26V96.26c0-10.62,8.64-19.26,19.26-19.26h29.41v7.5 c0,4.13,3.36,7.49,7.49,7.49h72.4c4.13,0,7.49-3.36,7.49-7.49V77h29.42c10.61,0,19.25,8.64,19.25,19.26v323.2 C468.84,430.08,460.21,438.72,449.6,438.72z M303.38,80c-8.96,0-16.26,7.29-16.26,16.26v323.2c0,8.96,7.29,16.26,16.26,16.26 H449.6c8.96,0,16.25-7.29,16.25-16.26V96.26c0-8.96-7.29-16.26-16.25-16.26h-26.42v4.5c0,5.79-4.71,10.49-10.49,10.49h-72.4 c-5.79,0-10.49-4.71-10.49-10.49V80H303.38z" class="st22"/></g></g></g></g><g id="XMLID_337_"><linearGradient id="SVGID_24_" x1="291.939" x2="341.138" y1="87.559" y2="148.315" gradientUnits="userSpaceOnUse"><stop offset="0" style="stop-color:#fff"/><stop offset=".149" style="stop-color:#d2d2d2"/><stop offset=".463" style="stop-color:#797979"/><stop offset=".719" style="stop-color:#383838"/><stop offset=".904" style="stop-color:#0f0f0f"/><stop offset="1" style="stop-color:#000"/></linearGradient><path d="M399.41,105L291.2,201.92V96.27c0-3.25,1.28-6.3,3.59-8.62c2.29-2.29,5.35-3.56,8.59-3.56h21.96v6.6 c0,7.87,6.41,14.31,14.31,14.31H399.41z" class="st23"/></g><g id="XMLID_320_"><g id="XMLID_332_"><path d="M443.5,88.8c-0.32,0-0.57,0.26-0.57,0.57c0,0.32,0.26,0.57,0.57,0.57c0.32,0,0.57-0.26,0.57-0.57 C444.07,89.05,443.82,88.8,443.5,88.8z M442.2,88.07l0.5,0.5c0.21-0.2,0.49-0.33,0.8-0.33c0.31,0,0.6,0.13,0.8,0.33l0.5-0.5 c-0.33-0.33-0.79-0.54-1.3-0.54C442.99,87.52,442.53,87.73,442.2,88.07z M441.1,86.96l0.5,0.5c0.49-0.49,1.16-0.79,1.9-0.79 c0.74,0,1.41,0.3,1.9,0.79l0.5-0.5c-0.62-0.62-1.47-1-2.4-1C442.56,85.97,441.71,86.35,441.1,86.96z M443.5,84.58 c-1.32,0-2.52,0.54-3.39,1.4l0.5,0.5c0.74-0.74,1.76-1.2,2.88-1.2c1.12,0,2.15,0.46,2.88,1.2l0.5-0.5 C446.02,85.11,444.82,84.58,443.5,84.58z" class="st18"/><linearGradient id="SVGID_25_" x1="439.115" x2="447.887" y1="87.258" y2="87.258" gradientUnits="userSpaceOnUse"><stop offset="0" style="stop-color:#7f41db"/><stop offset="1" style="stop-color:#03f3f8"/></linearGradient><path d="M443.5,90.94c-0.87,0-1.57-0.71-1.57-1.57c0-0.05,0-0.1,0.01-0.15l-0.45-0.45 c-0.1-0.1-0.18-0.23-0.23-0.37c-0.13-0.05-0.26-0.13-0.37-0.23l-0.5-0.5c-0.08-0.08-0.15-0.18-0.2-0.28 c-0.1-0.05-0.2-0.12-0.28-0.2l-0.5-0.5c-0.39-0.39-0.39-1.02,0-1.41c1.09-1.09,2.55-1.7,4.09-1.7s3,0.6,4.09,1.7 c0.39,0.39,0.39,1.02,0,1.41l-0.5,0.5c-0.08,0.08-0.18,0.15-0.28,0.2c-0.05,0.1-0.12,0.2-0.2,0.28l-0.5,0.5 c-0.11,0.11-0.23,0.18-0.36,0.23c-0.05,0.14-0.13,0.26-0.23,0.37l-0.45,0.45c0,0.05,0.01,0.1,0.01,0.15 C445.07,90.23,444.37,90.94,443.5,90.94z M443.09,89.49c0.1,0.36,0.72,0.36,0.82,0c-0.12-0.05-0.23-0.12-0.32-0.21 c-0.14-0.04-0.17-0.02-0.19,0C443.32,89.37,443.21,89.44,443.09,89.49z" class="st24"/></g><g id="XMLID_326_"><path d="M437.78,85.36v4.38h0.71v-4.38H437.78z M436.46,89.74h0.71v-3.58h-0.71V89.74z M435.13,89.74h0.71v-2.78 h-0.71V89.74z M433.81,89.74h0.71v-1.98h-0.71V89.74z M432.49,89.74h0.71v-1.17h-0.71V89.74z" class="st18"/><linearGradient id="SVGID_26_" x1="431.486" x2="439.492" y1="87.548" y2="87.548" gradientUnits="userSpaceOnUse"><stop offset="0" style="stop-color:#7f41db"/><stop offset="1" style="stop-color:#03f3f8"/></linearGradient><path d="M438.49,90.74h-0.71c-0.11,0-0.21-0.02-0.31-0.05c-0.1,0.03-0.2,0.05-0.31,0.05h-0.71 c-0.11,0-0.21-0.02-0.31-0.05c-0.1,0.03-0.2,0.05-0.31,0.05h-0.71c-0.11,0-0.21-0.02-0.31-0.05c-0.1,0.03-0.2,0.05-0.31,0.05 h-0.71c-0.11,0-0.21-0.02-0.31-0.05c-0.1,0.03-0.2,0.05-0.31,0.05h-0.71c-0.55,0-1-0.45-1-1v-1.17c0-0.55,0.45-1,1-1h0.34 c0.09-0.46,0.5-0.8,0.98-0.8h0.34c0.09-0.46,0.5-0.8,0.98-0.8h0.34c0.09-0.46,0.5-0.8,0.98-0.8h0.34 c0.09-0.46,0.5-0.8,0.98-0.8h0.71c0.55,0,1,0.45,1,1v4.38C439.49,90.29,439.04,90.74,438.49,90.74z" class="st25"/></g><path id="XMLID_321_" d="M449.13,86.56v2.26c0,0.31,0.25,0.57,0.57,0.57h5.22v-3.4h-5.22 C449.38,85.99,449.13,86.24,449.13,86.56z M457.25,87.13v-0.64c0-0.52-0.42-0.95-0.95-0.95h-6.67c-0.52,0-0.95,0.42-0.95,0.95 v2.39c0,0.52,0.42,0.95,0.95,0.95h6.67c0.52,0,0.95-0.42,0.95-0.95v-0.64h0.42v-1.11H457.25z M457.07,88.88 c0,0.42-0.34,0.77-0.77,0.77h-6.67c-0.42,0-0.77-0.34-0.77-0.77v-2.39c0-0.42,0.34-0.77,0.77-0.77h6.67 c0.42,0,0.77,0.34,0.77,0.77V88.88z M456.3,90.65h-6.67c-0.97,0-1.77-0.79-1.77-1.77v-2.4c0-0.97,0.79-1.77,1.77-1.77h6.67 c0.97,0,1.77,0.79,1.77,1.77v2.4v0C458.07,89.86,457.27,90.65,456.3,90.65z M449.86,88.65h6.21v-1.93h-6.21V88.65z" class="st18"/></g><g><linearGradient id="SVGID_27_" x1="334.533" x2="334.533" y1="421.496" y2="406.15" gradientUnits="userSpaceOnUse"><stop offset="0" style="stop-color:#fff"/><stop offset=".108" style="stop-color:#eceef5"/><stop offset=".33" style="stop-color:#b9c2dc"/><stop offset=".644" style="stop-color:#687cb3"/><stop offset="1" style="stop-color:#052580"/></linearGradient><path d="M342.92,421.5h-16.77c-4.24,0-7.67-3.44-7.67-7.67l0,0c0-4.24,3.43-7.67,7.67-7.67h16.77 c4.24,0,7.67,3.44,7.67,7.67l0,0C350.59,418.06,347.15,421.5,342.92,421.5z" class="st26"/><linearGradient id="SVGID_28_" x1="376.481" x2="376.481" y1="421.496" y2="406.15" gradientUnits="userSpaceOnUse"><stop offset="0" style="stop-color:#fff"/><stop offset=".108" style="stop-color:#eceef5"/><stop offset=".33" style="stop-color:#b9c2dc"/><stop offset=".644" style="stop-color:#687cb3"/><stop offset="1" style="stop-color:#052580"/></linearGradient><path d="M384.86,421.5H368.1c-4.24,0-7.67-3.44-7.67-7.67l0,0c0-4.24,3.44-7.67,7.67-7.67h16.77 c4.24,0,7.67,3.44,7.67,7.67l0,0C392.54,418.06,389.1,421.5,384.86,421.5z" class="st27"/><linearGradient id="SVGID_29_" x1="418.429" x2="418.429" y1="421.496" y2="406.15" gradientUnits="userSpaceOnUse"><stop offset="0" style="stop-color:#fff"/><stop offset=".108" style="stop-color:#eceef5"/><stop offset=".33" style="stop-color:#b9c2dc"/><stop offset=".644" style="stop-color:#687cb3"/><stop offset="1" style="stop-color:#052580"/></linearGradient><path d="M426.81,421.5h-16.77c-4.24,0-7.67-3.44-7.67-7.67l0,0c0-4.24,3.44-7.67,7.67-7.67h16.77 c4.24,0,7.67,3.44,7.67,7.67l0,0C434.49,418.06,431.05,421.5,426.81,421.5z" class="st28"/></g><g id="XMLID_318_"><linearGradient id="SVGID_30_" x1="331.293" x2="421.67" y1="89.21" y2="89.21" gradientUnits="userSpaceOnUse"><stop offset="0" style="stop-color:#7f41db"/><stop offset="1" style="stop-color:#02247d"/></linearGradient><path d="M421.67,84.67v6.01c0,4.97-4.03,8.99-8.99,8.99h-72.4c-4.96,0-8.99-4.02-8.99-8.99v-6.01v-5.92h90.38 V84.67z" class="st29"/><linearGradient id="SVGID_31_" x1="329.632" x2="423.329" y1="89.129" y2="89.129" gradientUnits="userSpaceOnUse"><stop offset="0" style="stop-color:#06ffff"/><stop offset="1" style="stop-color:#954ae2"/></linearGradient><path d="M340.28,101.25c-5.87,0-10.65-4.78-10.65-10.65V77.01h93.7V90.6c0,5.87-4.78,10.65-10.65,10.65H340.28z M332.95,90.6c0,4.04,3.29,7.33,7.33,7.33h72.4c4.04,0,7.33-3.29,7.33-7.33V80.33h-87.06V90.6z" class="st30"/></g><g><g><linearGradient id="SVGID_32_" x1="389.124" x2="395.459" y1="89.209" y2="89.209" gradientUnits="userSpaceOnUse"><stop offset="0" style="stop-color:#02247d"/><stop offset="1" style="stop-color:#03bef2"/></linearGradient><path d="M392.29,92.38c-1.75,0-3.17-1.42-3.17-3.17c0-1.75,1.42-3.18,3.17-3.18c1.75,0,3.17,1.43,3.17,3.18 C395.46,90.96,394.04,92.38,392.29,92.38z" class="st31"/><path d="M392.29,93.71c-2.48,0-4.5-2.02-4.5-4.5c0-2.49,2.02-4.51,4.5-4.51c2.48,0,4.5,2.02,4.5,4.51 C396.79,91.69,394.77,93.71,392.29,93.71z M392.29,87.37c-1.01,0-1.84,0.83-1.84,1.85c0,1.01,0.82,1.84,1.84,1.84 c1.01,0,1.84-0.82,1.84-1.84C394.13,88.2,393.3,87.37,392.29,87.37z" class="st32"/></g><g><linearGradient id="SVGID_33_" x1="357.504" x2="385.761" y1="89.213" y2="89.213" gradientUnits="userSpaceOnUse"><stop offset="0" style="stop-color:#02247d"/><stop offset="1" style="stop-color:#03bef2"/></linearGradient><path d="M360.45,92.15c-1.62,0-2.94-1.32-2.94-2.94c0-1.62,1.32-2.94,2.94-2.94h22.37c1.62,0,2.94,1.32,2.94,2.94 c0,1.62-1.32,2.94-2.94,2.94H360.45z" class="st33"/><path d="M382.82,93.48h-22.37c-2.36,0-4.27-1.92-4.27-4.27s1.92-4.27,4.27-4.27h22.37c2.36,0,4.27,1.92,4.27,4.27 S385.18,93.48,382.82,93.48z M360.45,87.6c-0.89,0-1.61,0.72-1.61,1.61c0,0.89,0.73,1.61,1.61,1.61h22.37 c0.89,0,1.61-0.72,1.61-1.61c0-0.89-0.72-1.61-1.61-1.61H360.45z" class="st32"/></g></g><g><linearGradient id="SVGID_34_" x1="440.339" x2="440.339" y1="393.021" y2="357.575" gradientUnits="userSpaceOnUse"><stop offset="0" style="stop-color:#7f41db"/><stop offset="1" style="stop-color:#022894"/></linearGradient><path d="M422.62,387.15c0,3.24,2.63,5.87,5.87,5.87h23.71c3.24,0,5.87-2.63,5.87-5.87v-23.71 c0-3.24-2.63-5.87-5.87-5.87h-23.71c-3.24,0-5.87,2.63-5.87,5.87V387.15z" class="st34"/><linearGradient id="SVGID_35_" x1="439.601" x2="439.601" y1="386.128" y2="365.452" gradientUnits="userSpaceOnUse"><stop offset="0" style="stop-color:#ffca02"/><stop offset=".239" style="stop-color:#fa9a35"/><stop offset=".479" style="stop-color:#f67160"/><stop offset=".694" style="stop-color:#f35480"/><stop offset=".875" style="stop-color:#f14193"/><stop offset="1" style="stop-color:#f03b9a"/></linearGradient><path d="M449.94,375.79c0,5.71-4.63,10.34-10.34,10.34c-5.71,0-10.34-4.63-10.34-10.34 c0-5.71,4.63-10.34,10.34-10.34C445.31,365.45,449.94,370.08,449.94,375.79z" class="st35"/><linearGradient id="SVGID_36_" x1="397.767" x2="397.767" y1="393.021" y2="357.575" gradientUnits="userSpaceOnUse"><stop offset="0" style="stop-color:#03bef2"/><stop offset="1" style="stop-color:#964ae2"/></linearGradient><path d="M380.04,387.15c0,3.24,2.63,5.87,5.87,5.87h23.71c3.24,0,5.87-2.63,5.87-5.87v-23.71 c0-3.24-2.63-5.87-5.87-5.87h-23.71c-3.24,0-5.87,2.63-5.87,5.87V387.15z" class="st36"/><path d="M407.37,375.79c0,5.71-4.63,10.34-10.34,10.34c-5.71,0-10.34-4.63-10.34-10.34 c0-5.71,4.63-10.34,10.34-10.34C402.74,365.45,407.37,370.08,407.37,375.79z" class="st37"/><linearGradient id="SVGID_37_" x1="355.195" x2="355.195" y1="393.021" y2="357.575" gradientUnits="userSpaceOnUse"><stop offset="0" style="stop-color:#ffca02"/><stop offset=".239" style="stop-color:#fa9a35"/><stop offset=".479" style="stop-color:#f67160"/><stop offset=".694" style="stop-color:#f35480"/><stop offset=".875" style="stop-color:#f14193"/><stop offset="1" style="stop-color:#f03b9a"/></linearGradient><path d="M337.47,387.15c0,3.24,2.63,5.87,5.87,5.87h23.71c3.24,0,5.87-2.63,5.87-5.87v-23.71 c0-3.24-2.63-5.87-5.87-5.87h-23.71c-3.24,0-5.87,2.63-5.87,5.87V387.15z" class="st38"/><linearGradient id="SVGID_38_" x1="354.456" x2="354.456" y1="386.128" y2="365.452" gradientUnits="userSpaceOnUse"><stop offset="0" style="stop-color:#03bef2"/><stop offset="1" style="stop-color:#964ae2"/></linearGradient><path d="M364.79,375.79c0,5.71-4.63,10.34-10.34,10.34c-5.71,0-10.34-4.63-10.34-10.34 c0-5.71,4.63-10.34,10.34-10.34C360.17,365.45,364.79,370.08,364.79,375.79z" class="st39"/><g><path d="M294.9,387.15c0,3.24,2.63,5.87,5.87,5.87h23.71c3.24,0,5.87-2.63,5.87-5.87v-23.71 c0-3.24-2.63-5.87-5.87-5.87h-23.71c-3.24,0-5.87,2.63-5.87,5.87V387.15z" class="st18"/><linearGradient id="SVGID_39_" x1="293.9" x2="331.345" y1="375.298" y2="375.298" gradientUnits="userSpaceOnUse"><stop offset="0" style="stop-color:#7f41db"/><stop offset="1" style="stop-color:#03f3f8"/></linearGradient><path d="M324.48,394.02h-23.71c-3.79,0-6.87-3.08-6.87-6.87v-23.71c0-3.79,3.08-6.87,6.87-6.87h23.71 c3.79,0,6.87,3.08,6.87,6.87v23.71C331.35,390.94,328.26,394.02,324.48,394.02z M300.77,358.58c-2.68,0-4.87,2.18-4.87,4.87 v23.71c0,2.68,2.18,4.87,4.87,4.87h23.71c2.68,0,4.87-2.18,4.87-4.87v-23.71c0-2.68-2.18-4.87-4.87-4.87H300.77z" class="st40"/></g><linearGradient id="SVGID_40_" x1="311.884" x2="311.884" y1="386.128" y2="365.452" gradientUnits="userSpaceOnUse"><stop offset="0" style="stop-color:#ffca02"/><stop offset=".239" style="stop-color:#fa9a35"/><stop offset=".479" style="stop-color:#f67160"/><stop offset=".694" style="stop-color:#f35480"/><stop offset=".875" style="stop-color:#f14193"/><stop offset="1" style="stop-color:#f03b9a"/></linearGradient><circle cx="311.88" cy="375.79" r="10.34" class="st41"/><linearGradient id="SVGID_41_" x1="440.339" x2="440.339" y1="150.899" y2="115.454" gradientUnits="userSpaceOnUse"><stop offset="0" style="stop-color:#7f41db"/><stop offset="1" style="stop-color:#022894"/></linearGradient><path d="M422.62,145.03c0,3.24,2.63,5.87,5.87,5.87h23.71c3.24,0,5.87-2.63,5.87-5.87v-23.71 c0-3.24-2.63-5.87-5.87-5.87h-23.71c-3.24,0-5.87,2.63-5.87,5.87V145.03z" class="st42"/><linearGradient id="SVGID_42_" x1="439.601" x2="439.601" y1="144.007" y2="123.331" gradientUnits="userSpaceOnUse"><stop offset="0" style="stop-color:#ffca02"/><stop offset=".239" style="stop-color:#fa9a35"/><stop offset=".479" style="stop-color:#f67160"/><stop offset=".694" style="stop-color:#f35480"/><stop offset=".875" style="stop-color:#f14193"/><stop offset="1" style="stop-color:#f03b9a"/></linearGradient><path d="M449.94,133.67c0,5.71-4.63,10.34-10.34,10.34c-5.71,0-10.34-4.63-10.34-10.34 c0-5.71,4.63-10.34,10.34-10.34C445.31,123.33,449.94,127.96,449.94,133.67z" class="st43"/><linearGradient id="SVGID_43_" x1="397.767" x2="397.767" y1="150.899" y2="115.454" gradientUnits="userSpaceOnUse"><stop offset="0" style="stop-color:#03bef2"/><stop offset="1" style="stop-color:#964ae2"/></linearGradient><path d="M380.04,145.03c0,3.24,2.63,5.87,5.87,5.87h23.71c3.24,0,5.87-2.63,5.87-5.87v-23.71 c0-3.24-2.63-5.87-5.87-5.87h-23.71c-3.24,0-5.87,2.63-5.87,5.87V145.03z" class="st44"/><path d="M407.37,133.67c0,5.71-4.63,10.34-10.34,10.34c-5.71,0-10.34-4.63-10.34-10.34 c0-5.71,4.63-10.34,10.34-10.34C402.74,123.33,407.37,127.96,407.37,133.67z" class="st37"/><linearGradient id="SVGID_44_" x1="355.195" x2="355.195" y1="150.899" y2="115.454" gradientUnits="userSpaceOnUse"><stop offset="0" style="stop-color:#ffca02"/><stop offset=".239" style="stop-color:#fa9a35"/><stop offset=".479" style="stop-color:#f67160"/><stop offset=".694" style="stop-color:#f35480"/><stop offset=".875" style="stop-color:#f14193"/><stop offset="1" style="stop-color:#f03b9a"/></linearGradient><path d="M337.47,145.03c0,3.24,2.63,5.87,5.87,5.87h23.71c3.24,0,5.87-2.63,5.87-5.87v-23.71 c0-3.24-2.63-5.87-5.87-5.87h-23.71c-3.24,0-5.87,2.63-5.87,5.87V145.03z" class="st45"/><linearGradient id="SVGID_45_" x1="354.456" x2="354.456" y1="144.007" y2="123.331" gradientUnits="userSpaceOnUse"><stop offset="0" style="stop-color:#03bef2"/><stop offset="1" style="stop-color:#964ae2"/></linearGradient><path d="M364.79,133.67c0,5.71-4.63,10.34-10.34,10.34c-5.71,0-10.34-4.63-10.34-10.34 c0-5.71,4.63-10.34,10.34-10.34C360.17,123.33,364.79,127.96,364.79,133.67z" class="st46"/><g><path d="M294.9,145.03c0,3.24,2.63,5.87,5.87,5.87h23.71c3.24,0,5.87-2.63,5.87-5.87v-23.71 c0-3.24-2.63-5.87-5.87-5.87h-23.71c-3.24,0-5.87,2.63-5.87,5.87V145.03z" class="st18"/><linearGradient id="SVGID_46_" x1="293.9" x2="331.345" y1="133.177" y2="133.177" gradientUnits="userSpaceOnUse"><stop offset="0" style="stop-color:#7f41db"/><stop offset="1" style="stop-color:#03f3f8"/></linearGradient><path d="M324.48,151.9h-23.71c-3.79,0-6.87-3.08-6.87-6.87v-23.71c0-3.79,3.08-6.87,6.87-6.87h23.71 c3.79,0,6.87,3.08,6.87,6.87v23.71C331.35,148.82,328.26,151.9,324.48,151.9z M300.77,116.45c-2.68,0-4.87,2.18-4.87,4.87 v23.71c0,2.68,2.18,4.87,4.87,4.87h23.71c2.68,0,4.87-2.18,4.87-4.87v-23.71c0-2.68-2.18-4.87-4.87-4.87H300.77z" class="st47"/></g><linearGradient id="SVGID_47_" x1="311.884" x2="311.884" y1="144.007" y2="123.331" gradientUnits="userSpaceOnUse"><stop offset="0" style="stop-color:#ffca02"/><stop offset=".239" style="stop-color:#fa9a35"/><stop offset=".479" style="stop-color:#f67160"/><stop offset=".694" style="stop-color:#f35480"/><stop offset=".875" style="stop-color:#f14193"/><stop offset="1" style="stop-color:#f03b9a"/></linearGradient><circle cx="311.88" cy="133.67" r="10.34" class="st48"/><linearGradient id="SVGID_48_" x1="312.623" x2="312.623" y1="196.806" y2="161.36" gradientUnits="userSpaceOnUse"><stop offset="0" style="stop-color:#7f41db"/><stop offset="1" style="stop-color:#022894"/></linearGradient><path d="M330.35,167.23c0-3.24-2.63-5.87-5.87-5.87h-23.71c-3.24,0-5.87,2.63-5.87,5.87v23.71 c0,3.24,2.63,5.87,5.87,5.87h23.71c3.24,0,5.87-2.63,5.87-5.87V167.23z" class="st49"/><linearGradient id="SVGID_49_" x1="313.361" x2="313.361" y1="188.93" y2="168.253" gradientUnits="userSpaceOnUse"><stop offset="0" style="stop-color:#ffca02"/><stop offset=".239" style="stop-color:#fa9a35"/><stop offset=".479" style="stop-color:#f67160"/><stop offset=".694" style="stop-color:#f35480"/><stop offset=".875" style="stop-color:#f14193"/><stop offset="1" style="stop-color:#f03b9a"/></linearGradient><path d="M303.02,178.59c0-5.71,4.63-10.34,10.34-10.34c5.71,0,10.34,4.63,10.34,10.34 c0,5.71-4.63,10.34-10.34,10.34C307.65,188.93,303.02,184.3,303.02,178.59z" class="st50"/><linearGradient id="SVGID_50_" x1="355.195" x2="355.195" y1="196.806" y2="161.36" gradientUnits="userSpaceOnUse"><stop offset="0" style="stop-color:#03bef2"/><stop offset="1" style="stop-color:#964ae2"/></linearGradient><path d="M372.92,167.23c0-3.24-2.63-5.87-5.87-5.87h-23.71c-3.24,0-5.87,2.63-5.87,5.87v23.71 c0,3.24,2.63,5.87,5.87,5.87h23.71c3.24,0,5.87-2.63,5.87-5.87V167.23z" class="st51"/><path d="M345.6,178.59c0-5.71,4.63-10.34,10.34-10.34c5.71,0,10.34,4.63,10.34,10.34 c0,5.71-4.63,10.34-10.34,10.34C350.22,188.93,345.6,184.3,345.6,178.59z" class="st37"/><linearGradient id="SVGID_51_" x1="397.767" x2="397.767" y1="196.806" y2="161.36" gradientUnits="userSpaceOnUse"><stop offset="0" style="stop-color:#ffca02"/><stop offset=".239" style="stop-color:#fa9a35"/><stop offset=".479" style="stop-color:#f67160"/><stop offset=".694" style="stop-color:#f35480"/><stop offset=".875" style="stop-color:#f14193"/><stop offset="1" style="stop-color:#f03b9a"/></linearGradient><path d="M415.49,167.23c0-3.24-2.63-5.87-5.87-5.87h-23.71c-3.24,0-5.87,2.63-5.87,5.87v23.71 c0,3.24,2.63,5.87,5.87,5.87h23.71c3.24,0,5.87-2.63,5.87-5.87V167.23z" class="st52"/><linearGradient id="SVGID_52_" x1="398.505" x2="398.505" y1="188.93" y2="168.253" gradientUnits="userSpaceOnUse"><stop offset="0" style="stop-color:#03bef2"/><stop offset="1" style="stop-color:#964ae2"/></linearGradient><path d="M388.17,178.59c0-5.71,4.63-10.34,10.34-10.34c5.71,0,10.34,4.63,10.34,10.34 c0,5.71-4.63,10.34-10.34,10.34C392.8,188.93,388.17,184.3,388.17,178.59z" class="st53"/><g><path d="M458.06,167.23c0-3.24-2.63-5.87-5.87-5.87h-23.71c-3.24,0-5.87,2.63-5.87,5.87v23.71 c0,3.24,2.63,5.87,5.87,5.87h23.71c3.24,0,5.87-2.63,5.87-5.87V167.23z" class="st18"/><linearGradient id="SVGID_53_" x1="421.617" x2="459.062" y1="179.083" y2="179.083" gradientUnits="userSpaceOnUse"><stop offset="0" style="stop-color:#7f41db"/><stop offset="1" style="stop-color:#03f3f8"/></linearGradient><path d="M452.19,197.81h-23.71c-3.79,0-6.87-3.08-6.87-6.87v-23.71c0-3.79,3.08-6.87,6.87-6.87h23.71 c3.79,0,6.87,3.08,6.87,6.87v23.71C459.06,194.72,455.98,197.81,452.19,197.81z M428.48,162.36c-2.68,0-4.87,2.18-4.87,4.87 v23.71c0,2.68,2.18,4.87,4.87,4.87h23.71c2.68,0,4.87-2.18,4.87-4.87v-23.71c0-2.68-2.18-4.87-4.87-4.87H428.48z" class="st54"/></g><linearGradient id="SVGID_54_" x1="441.077" x2="441.077" y1="188.93" y2="168.253" gradientUnits="userSpaceOnUse"><stop offset="0" style="stop-color:#ffca02"/><stop offset=".239" style="stop-color:#fa9a35"/><stop offset=".479" style="stop-color:#f67160"/><stop offset=".694" style="stop-color:#f35480"/><stop offset=".875" style="stop-color:#f14193"/><stop offset="1" style="stop-color:#f03b9a"/></linearGradient><path d="M430.74,178.59c0-5.71,4.63-10.34,10.34-10.34c5.71,0,10.34,4.63,10.34,10.34 c0,5.71-4.63,10.34-10.34,10.34C435.37,188.93,430.74,184.3,430.74,178.59z" class="st55"/><linearGradient id="SVGID_55_" x1="440.339" x2="440.339" y1="242.474" y2="207.028" gradientUnits="userSpaceOnUse"><stop offset="0" style="stop-color:#7f41db"/><stop offset="1" style="stop-color:#022894"/></linearGradient><path d="M422.62,236.61c0,3.24,2.63,5.87,5.87,5.87h23.71c3.24,0,5.87-2.63,5.87-5.87V212.9 c0-3.24-2.63-5.87-5.87-5.87h-23.71c-3.24,0-5.87,2.63-5.87,5.87V236.61z" class="st56"/><linearGradient id="SVGID_56_" x1="439.601" x2="439.601" y1="235.581" y2="214.905" gradientUnits="userSpaceOnUse"><stop offset="0" style="stop-color:#ffca02"/><stop offset=".239" style="stop-color:#fa9a35"/><stop offset=".479" style="stop-color:#f67160"/><stop offset=".694" style="stop-color:#f35480"/><stop offset=".875" style="stop-color:#f14193"/><stop offset="1" style="stop-color:#f03b9a"/></linearGradient><path d="M449.94,225.24c0,5.71-4.63,10.34-10.34,10.34c-5.71,0-10.34-4.63-10.34-10.34 c0-5.71,4.63-10.34,10.34-10.34C445.31,214.91,449.94,219.53,449.94,225.24z" class="st57"/><linearGradient id="SVGID_57_" x1="397.767" x2="397.767" y1="242.474" y2="207.028" gradientUnits="userSpaceOnUse"><stop offset="0" style="stop-color:#03bef2"/><stop offset="1" style="stop-color:#964ae2"/></linearGradient><path d="M380.04,236.61c0,3.24,2.63,5.87,5.87,5.87h23.71c3.24,0,5.87-2.63,5.87-5.87V212.9 c0-3.24-2.63-5.87-5.87-5.87h-23.71c-3.24,0-5.87,2.63-5.87,5.87V236.61z" class="st58"/><path d="M407.37,225.24c0,5.71-4.63,10.34-10.34,10.34c-5.71,0-10.34-4.63-10.34-10.34 c0-5.71,4.63-10.34,10.34-10.34C402.74,214.91,407.37,219.53,407.37,225.24z" class="st37"/><linearGradient id="SVGID_58_" x1="355.195" x2="355.195" y1="242.474" y2="207.028" gradientUnits="userSpaceOnUse"><stop offset="0" style="stop-color:#ffca02"/><stop offset=".239" style="stop-color:#fa9a35"/><stop offset=".479" style="stop-color:#f67160"/><stop offset=".694" style="stop-color:#f35480"/><stop offset=".875" style="stop-color:#f14193"/><stop offset="1" style="stop-color:#f03b9a"/></linearGradient><path d="M337.47,236.61c0,3.24,2.63,5.87,5.87,5.87h23.71c3.24,0,5.87-2.63,5.87-5.87V212.9 c0-3.24-2.63-5.87-5.87-5.87h-23.71c-3.24,0-5.87,2.63-5.87,5.87V236.61z" class="st59"/><linearGradient id="SVGID_59_" x1="354.456" x2="354.456" y1="235.581" y2="214.905" gradientUnits="userSpaceOnUse"><stop offset="0" style="stop-color:#03bef2"/><stop offset="1" style="stop-color:#964ae2"/></linearGradient><path d="M364.79,225.24c0,5.71-4.63,10.34-10.34,10.34c-5.71,0-10.34-4.63-10.34-10.34 c0-5.71,4.63-10.34,10.34-10.34C360.17,214.91,364.79,219.53,364.79,225.24z" class="st60"/><g><path d="M294.9,236.61c0,3.24,2.63,5.87,5.87,5.87h23.71c3.24,0,5.87-2.63,5.87-5.87V212.9 c0-3.24-2.63-5.87-5.87-5.87h-23.71c-3.24,0-5.87,2.63-5.87,5.87V236.61z" class="st18"/><linearGradient id="SVGID_60_" x1="293.9" x2="331.345" y1="224.751" y2="224.751" gradientUnits="userSpaceOnUse"><stop offset="0" style="stop-color:#7f41db"/><stop offset="1" style="stop-color:#03f3f8"/></linearGradient><path d="M324.48,243.47h-23.71c-3.79,0-6.87-3.08-6.87-6.87V212.9c0-3.79,3.08-6.87,6.87-6.87h23.71 c3.79,0,6.87,3.08,6.87,6.87v23.71C331.35,240.39,328.26,243.47,324.48,243.47z M300.77,208.03c-2.68,0-4.87,2.18-4.87,4.87 v23.71c0,2.68,2.18,4.87,4.87,4.87h23.71c2.68,0,4.87-2.18,4.87-4.87V212.9c0-2.68-2.18-4.87-4.87-4.87H300.77z" class="st61"/></g><linearGradient id="SVGID_61_" x1="311.884" x2="311.884" y1="235.581" y2="214.905" gradientUnits="userSpaceOnUse"><stop offset="0" style="stop-color:#ffca02"/><stop offset=".239" style="stop-color:#fa9a35"/><stop offset=".479" style="stop-color:#f67160"/><stop offset=".694" style="stop-color:#f35480"/><stop offset=".875" style="stop-color:#f14193"/><stop offset="1" style="stop-color:#f03b9a"/></linearGradient><circle cx="311.88" cy="225.24" r="10.34" class="st62"/><linearGradient id="SVGID_62_" x1="312.623" x2="312.623" y1="288.38" y2="252.936" gradientUnits="userSpaceOnUse"><stop offset="0" style="stop-color:#7f41db"/><stop offset="1" style="stop-color:#022894"/></linearGradient><path d="M330.35,258.8c0-3.24-2.63-5.87-5.87-5.87h-23.71c-3.24,0-5.87,2.63-5.87,5.87v23.71 c0,3.24,2.63,5.87,5.87,5.87h23.71c3.24,0,5.87-2.63,5.87-5.87V258.8z" class="st63"/><linearGradient id="SVGID_63_" x1="313.361" x2="313.361" y1="280.504" y2="259.828" gradientUnits="userSpaceOnUse"><stop offset="0" style="stop-color:#ffca02"/><stop offset=".239" style="stop-color:#fa9a35"/><stop offset=".479" style="stop-color:#f67160"/><stop offset=".694" style="stop-color:#f35480"/><stop offset=".875" style="stop-color:#f14193"/><stop offset="1" style="stop-color:#f03b9a"/></linearGradient><path d="M303.02,270.17c0-5.71,4.63-10.34,10.34-10.34c5.71,0,10.34,4.63,10.34,10.34 c0,5.71-4.63,10.34-10.34,10.34C307.65,280.5,303.02,275.88,303.02,270.17z" class="st64"/><linearGradient id="SVGID_64_" x1="355.195" x2="355.195" y1="288.38" y2="252.936" gradientUnits="userSpaceOnUse"><stop offset="0" style="stop-color:#03bef2"/><stop offset="1" style="stop-color:#964ae2"/></linearGradient><path d="M372.92,258.8c0-3.24-2.63-5.87-5.87-5.87h-23.71c-3.24,0-5.87,2.63-5.87,5.87v23.71 c0,3.24,2.63,5.87,5.87,5.87h23.71c3.24,0,5.87-2.63,5.87-5.87V258.8z" class="st65"/><ellipse cx="355.93" cy="270.17" class="st37" rx="10.34" ry="10.34" transform="matrix(0.1602 -0.9871 0.9871 0.1602 32.2413 578.2272)"/><linearGradient id="SVGID_65_" x1="397.767" x2="397.767" y1="288.38" y2="252.936" gradientUnits="userSpaceOnUse"><stop offset="0" style="stop-color:#ffca02"/><stop offset=".239" style="stop-color:#fa9a35"/><stop offset=".479" style="stop-color:#f67160"/><stop offset=".694" style="stop-color:#f35480"/><stop offset=".875" style="stop-color:#f14193"/><stop offset="1" style="stop-color:#f03b9a"/></linearGradient><path d="M415.49,258.8c0-3.24-2.63-5.87-5.87-5.87h-23.71c-3.24,0-5.87,2.63-5.87,5.87v23.71 c0,3.24,2.63,5.87,5.87,5.87h23.71c3.24,0,5.87-2.63,5.87-5.87V258.8z" class="st66"/><linearGradient id="SVGID_66_" x1="398.505" x2="398.505" y1="280.504" y2="259.828" gradientUnits="userSpaceOnUse"><stop offset="0" style="stop-color:#03bef2"/><stop offset="1" style="stop-color:#964ae2"/></linearGradient><path d="M388.17,270.17c0-5.71,4.63-10.34,10.34-10.34c5.71,0,10.34,4.63,10.34,10.34 c0,5.71-4.63,10.34-10.34,10.34C392.8,280.5,388.17,275.88,388.17,270.17z" class="st67"/></g></g><g><g><g><g><linearGradient id="SVGID_67_" x1="1571.418" x2="1579.905" y1="929.314" y2="944.625" gradientTransform="matrix(-0.8719 -0.4897 -0.4897 0.8719 2427.9292 321.7901)" gradientUnits="userSpaceOnUse"><stop offset="0" style="stop-color:#7f41db"/><stop offset="1" style="stop-color:#022894"/></linearGradient><path d="M581,351.77l11.84-5.25l13.85,31.22c1.44,3.24-0.02,7.03-3.26,8.46l-0.12,0.05 c-3.24,1.43-7.03-0.03-8.46-3.26L581,351.77z" class="st68"/><linearGradient id="SVGID_68_" x1="1556.937" x2="1597.031" y1="936.035" y2="936.035" gradientTransform="matrix(-0.8719 -0.4897 -0.4897 0.8719 2427.9292 321.7901)" gradientUnits="userSpaceOnUse"><stop offset="0" style="stop-color:#7f41db"/><stop offset="1" style="stop-color:#03f3f8"/></linearGradient><path d="M600.72,387.81c-2.84,0-5.56-1.64-6.79-4.41l-14.25-32.14l13.67-6.06l14.26,32.14 c0.8,1.81,0.85,3.82,0.14,5.67c-0.71,1.85-2.1,3.31-3.91,4.11l-0.12,0.05C602.74,387.6,601.72,387.81,600.72,387.81z M582.32,352.28l13.44,30.31c1.21,2.73,4.42,3.96,7.14,2.75l0.12-0.05c1.32-0.59,2.34-1.65,2.86-3 c0.52-1.35,0.48-2.82-0.1-4.14l-13.45-30.31L582.32,352.28z" class="st69"/></g></g></g><g><g><linearGradient id="SVGID_69_" x1="1579.033" x2="1681.997" y1="896.457" y2="896.457" gradientTransform="matrix(-0.8719 -0.4897 -0.4897 0.8719 2427.9292 321.7901)" gradientUnits="userSpaceOnUse"><stop offset="0" style="stop-color:#964ae2"/><stop offset="1" style="stop-color:#03ffff"/></linearGradient><path d="M519.31,286.36c-5.28,13.59-4.3,28.28,1.6,40.7c4.86,10.26,13.09,18.97,23.92,24.21 c1.25,0.6,2.57,1.16,3.85,1.65c6.58,2.56,13.44,3.73,20.41,3.5c1.13-0.04,2.27-0.13,3.39-0.25c3.16-0.33,6.28-0.96,9.35-1.87 c2.14-0.65,4.27-1.43,6.32-2.33c1.99-0.89,3.93-1.89,5.75-3.01c9.82-5.88,17.22-14.67,21.38-25.4 c4.97-12.83,4.64-26.8-0.92-39.4c-4.95-11.19-13.7-20.25-24.6-25.53c-1.27-0.59-2.54-1.18-3.87-1.68 c-12.82-4.96-26.87-4.6-39.46,0.98C533.86,263.49,524.21,273.58,519.31,286.36z M550.01,266.04 c10.46-4.63,22.05-4.92,32.66-0.82c1.08,0.44,2.17,0.9,3.2,1.39c9.05,4.38,16.26,11.89,20.34,21.15 c4.63,10.41,4.91,21.98,0.78,32.57c-4.08,10.54-12.05,18.89-22.44,23.52l-0.96,0.41c-1.79,0.72-3.61,1.33-5.44,1.81 c-8.78,2.32-17.87,1.82-26.28-1.42c-1.07-0.43-2.13-0.87-3.16-1.39c-11.07-5.35-18.86-15.08-22.18-26.21 c-2.62-8.78-2.46-18.42,1.05-27.48C531.69,278.99,539.65,270.64,550.01,266.04z M567.15,348.5c-5.32,0-10.6-0.98-15.64-2.92 c-1.11-0.45-2.19-0.89-3.26-1.43c-10.9-5.27-19.17-15.04-22.68-26.81c-2.79-9.38-2.42-19.11,1.07-28.13 c4.21-10.82,12.37-19.37,22.96-24.08h0c10.7-4.74,22.57-5.04,33.42-0.84c1.31,0.53,2.34,0.98,3.28,1.42 c9.25,4.47,16.64,12.16,20.82,21.65c4.74,10.66,5.02,22.5,0.8,33.34c-4.18,10.79-12.34,19.33-22.96,24.07l-0.98,0.41 c-1.86,0.75-3.73,1.37-5.57,1.85C574.69,348.01,570.91,348.5,567.15,348.5z M550.42,266.95c-10.11,4.5-17.89,12.66-21.91,22.98 c-3.33,8.6-3.69,17.88-1.02,26.84c3.35,11.23,11.25,20.55,21.66,25.59c1.01,0.52,2.04,0.94,3.1,1.37 c8.2,3.16,17.08,3.64,25.66,1.38c1.77-0.46,3.56-1.06,5.32-1.77l0.95-0.4c10.12-4.51,17.91-12.67,21.89-22.96 c4.03-10.34,3.76-21.64-0.76-31.8c-3.99-9.06-11.04-16.39-19.86-20.66c-0.89-0.43-1.89-0.86-3.14-1.37 C571.95,262.14,560.62,262.43,550.42,266.95L550.42,266.95z" class="st70"/></g></g><g><g><g><linearGradient id="SVGID_70_" x1="1571.418" x2="1579.905" y1="929.314" y2="944.625" gradientTransform="matrix(-0.8719 -0.4897 -0.4897 0.8719 2427.9292 321.7901)" gradientUnits="userSpaceOnUse"><stop offset="0" style="stop-color:#7f41db"/><stop offset="1" style="stop-color:#022894"/></linearGradient><path d="M581,351.77l11.84-5.25l13.85,31.22c1.44,3.24-0.02,7.03-3.26,8.46l-0.12,0.05 c-3.24,1.43-7.03-0.03-8.46-3.26L581,351.77z" class="st71"/><linearGradient id="SVGID_71_" x1="1556.937" x2="1597.031" y1="936.035" y2="936.035" gradientTransform="matrix(-0.8719 -0.4897 -0.4897 0.8719 2427.9292 321.7901)" gradientUnits="userSpaceOnUse"><stop offset="0" style="stop-color:#7f41db"/><stop offset="1" style="stop-color:#03f3f8"/></linearGradient><path d="M600.72,387.81c-2.84,0-5.56-1.64-6.79-4.41l-14.25-32.14l13.67-6.06l14.26,32.14 c0.8,1.81,0.85,3.82,0.14,5.67c-0.71,1.85-2.1,3.31-3.91,4.11l-0.12,0.05C602.74,387.6,601.72,387.81,600.72,387.81z M582.32,352.28l13.44,30.31c1.21,2.73,4.42,3.96,7.14,2.75l0.12-0.05c1.32-0.59,2.34-1.65,2.86-3 c0.52-1.35,0.48-2.82-0.1-4.14l-13.45-30.31L582.32,352.28z" class="st72"/></g></g></g><g><g><g><path d="M581.5,366.28l21.77-9.66l25.47,57.42c2.64,5.95-0.04,12.92-6,15.56l-0.22,0.1 c-5.95,2.64-12.92-0.05-15.56-6L581.5,366.28z" class="st18"/><linearGradient id="SVGID_72_" x1="1517.766" x2="1589.085" y1="953.397" y2="953.397" gradientTransform="matrix(-0.8719 -0.4897 -0.4897 0.8719 2427.9292 321.7901)" gradientUnits="userSpaceOnUse"><stop offset="0" style="stop-color:#7f41db"/><stop offset="1" style="stop-color:#03f3f8"/></linearGradient><path d="M617.77,431.71c-4.91,0-9.6-2.84-11.71-7.61l-25.47-57.42c-0.22-0.5,0-1.1,0.51-1.32l21.77-9.66 c0.51-0.23,1.1,0,1.32,0.51l25.47,57.42c1.39,3.12,1.47,6.6,0.24,9.79c-1.23,3.19-3.63,5.71-6.75,7.09l-0.22,0.1 C621.26,431.36,619.5,431.71,617.77,431.71z M582.82,366.79l25.06,56.51c2.41,5.44,8.8,7.9,14.24,5.49l0.22-0.1 c2.64-1.17,4.66-3.29,5.7-5.98c1.04-2.69,0.96-5.62-0.21-8.26l-25.07-56.5L582.82,366.79z" class="st73"/></g><g><linearGradient id="SVGID_73_" x1="1524.177" x2="1535.58" y1="977.031" y2="977.031" gradientTransform="matrix(-0.8719 -0.4897 -0.4897 0.8719 2427.9292 321.7901)" gradientUnits="userSpaceOnUse"><stop offset="0" style="stop-color:#7f41db"/><stop offset="1" style="stop-color:#03f3f8"/></linearGradient><path d="M617.75,427.08c-1.38,0-2.74-0.35-3.99-1.05c-1.54-0.87-2.73-2.18-3.45-3.8l1.83-0.81 c0.54,1.22,1.44,2.21,2.6,2.86c1.71,0.96,3.72,1.06,5.51,0.26l0.81,1.83C619.99,426.84,618.87,427.08,617.75,427.08z" class="st74"/></g><g><linearGradient id="SVGID_74_" x1="1539.48" x2="1550.478" y1="969.374" y2="969.374" gradientTransform="matrix(-0.8719 -0.4897 -0.4897 0.8719 2427.9292 321.7901)" gradientUnits="userSpaceOnUse"><stop offset="0" style="stop-color:#7f41db"/><stop offset="1" style="stop-color:#03f3f8"/></linearGradient><polygon points="607.73 416.41 602.77 405.22 604.59 404.41 609.55 415.6" class="st75"/></g><g><linearGradient id="SVGID_75_" x1="1551.54" x2="1557.973" y1="962.07" y2="962.07" gradientTransform="matrix(-0.8719 -0.4897 -0.4897 0.8719 2427.9292 321.7901)" gradientUnits="userSpaceOnUse"><stop offset="0" style="stop-color:#7f41db"/><stop offset="1" style="stop-color:#03f3f8"/></linearGradient><polygon points="601.62 402.65 598.97 396.67 600.8 395.86 603.45 401.84" class="st76"/></g></g></g><g><g><g><g><linearGradient id="SVGID_76_" x1="1571.418" x2="1579.905" y1="929.314" y2="944.625" gradientTransform="matrix(-0.8719 -0.4897 -0.4897 0.8719 2427.9292 321.7901)" gradientUnits="userSpaceOnUse"><stop offset="0" style="stop-color:#7f41db"/><stop offset="1" style="stop-color:#022894"/></linearGradient><path d="M581,351.77l11.84-5.25l13.85,31.22c1.44,3.24-0.02,7.03-3.26,8.46l-0.12,0.05 c-3.24,1.43-7.03-0.03-8.46-3.26L581,351.77z" class="st77"/><linearGradient id="SVGID_77_" x1="1556.937" x2="1597.031" y1="936.035" y2="936.035" gradientTransform="matrix(-0.8719 -0.4897 -0.4897 0.8719 2427.9292 321.7901)" gradientUnits="userSpaceOnUse"><stop offset="0" style="stop-color:#7f41db"/><stop offset="1" style="stop-color:#03f3f8"/></linearGradient><path d="M600.72,387.81c-2.84,0-5.56-1.64-6.79-4.41l-14.25-32.14l13.67-6.06l14.26,32.14 c0.8,1.81,0.85,3.82,0.14,5.67c-0.71,1.85-2.1,3.31-3.91,4.11l-0.12,0.05C602.74,387.6,601.72,387.81,600.72,387.81z M582.32,352.28l13.44,30.31c1.21,2.73,4.42,3.96,7.14,2.75l0.12-0.05c1.32-0.59,2.34-1.65,2.86-3 c0.52-1.35,0.48-2.82-0.1-4.14l-13.45-30.31L582.32,352.28z" class="st78"/></g></g></g><g><g><g><path d="M581.5,366.28l21.77-9.66l25.47,57.42c2.64,5.95-0.04,12.92-6,15.56l-0.22,0.1 c-5.95,2.64-12.92-0.05-15.56-6L581.5,366.28z" class="st18"/><linearGradient id="SVGID_78_" x1="1517.766" x2="1589.085" y1="953.397" y2="953.397" gradientTransform="matrix(-0.8719 -0.4897 -0.4897 0.8719 2427.9292 321.7901)" gradientUnits="userSpaceOnUse"><stop offset="0" style="stop-color:#7f41db"/><stop offset="1" style="stop-color:#03f3f8"/></linearGradient><path d="M617.77,431.71c-4.91,0-9.6-2.84-11.71-7.61l-25.47-57.42c-0.22-0.5,0-1.1,0.51-1.32l21.77-9.66 c0.51-0.23,1.1,0,1.32,0.51l25.47,57.42c1.39,3.12,1.47,6.6,0.24,9.79c-1.23,3.19-3.63,5.71-6.75,7.09l-0.22,0.1 C621.26,431.36,619.5,431.71,617.77,431.71z M582.82,366.79l25.06,56.51c2.41,5.44,8.8,7.9,14.24,5.49l0.22-0.1 c2.64-1.17,4.66-3.29,5.7-5.98c1.04-2.69,0.96-5.62-0.21-8.26l-25.07-56.5L582.82,366.79z" class="st79"/></g><g><linearGradient id="SVGID_79_" x1="1524.177" x2="1535.58" y1="977.031" y2="977.031" gradientTransform="matrix(-0.8719 -0.4897 -0.4897 0.8719 2427.9292 321.7901)" gradientUnits="userSpaceOnUse"><stop offset="0" style="stop-color:#7f41db"/><stop offset="1" style="stop-color:#03f3f8"/></linearGradient><path d="M617.75,427.08c-1.38,0-2.74-0.35-3.99-1.05c-1.54-0.87-2.73-2.18-3.45-3.8l1.83-0.81 c0.54,1.22,1.44,2.21,2.6,2.86c1.71,0.96,3.72,1.06,5.51,0.26l0.81,1.83C619.99,426.84,618.87,427.08,617.75,427.08z" class="st80"/></g><g><linearGradient id="SVGID_80_" x1="1539.48" x2="1550.478" y1="969.374" y2="969.374" gradientTransform="matrix(-0.8719 -0.4897 -0.4897 0.8719 2427.9292 321.7901)" gradientUnits="userSpaceOnUse"><stop offset="0" style="stop-color:#7f41db"/><stop offset="1" style="stop-color:#03f3f8"/></linearGradient><polygon points="607.73 416.41 602.77 405.22 604.59 404.41 609.55 415.6" class="st81"/></g><g><linearGradient id="SVGID_81_" x1="1551.54" x2="1557.973" y1="962.07" y2="962.07" gradientTransform="matrix(-0.8719 -0.4897 -0.4897 0.8719 2427.9292 321.7901)" gradientUnits="userSpaceOnUse"><stop offset="0" style="stop-color:#7f41db"/><stop offset="1" style="stop-color:#03f3f8"/></linearGradient><polygon points="601.62 402.65 598.97 396.67 600.8 395.86 603.45 401.84" class="st82"/></g></g></g></g><g><g><g><path d="M581.5,366.28l21.77-9.66l25.47,57.42c2.64,5.95-0.04,12.92-6,15.56l-0.22,0.1 c-5.95,2.64-12.92-0.05-15.56-6L581.5,366.28z" class="st18"/><linearGradient id="SVGID_82_" x1="1517.766" x2="1589.085" y1="953.397" y2="953.397" gradientTransform="matrix(-0.8719 -0.4897 -0.4897 0.8719 2427.9292 321.7901)" gradientUnits="userSpaceOnUse"><stop offset="0" style="stop-color:#7f41db"/><stop offset="1" style="stop-color:#03f3f8"/></linearGradient><path d="M617.77,431.71c-4.91,0-9.6-2.84-11.71-7.61l-25.47-57.42c-0.22-0.5,0-1.1,0.51-1.32l21.77-9.66 c0.51-0.23,1.1,0,1.32,0.51l25.47,57.42c1.39,3.12,1.47,6.6,0.24,9.79c-1.23,3.19-3.63,5.71-6.75,7.09l-0.22,0.1 C621.26,431.36,619.5,431.71,617.77,431.71z M582.82,366.79l25.06,56.51c2.41,5.44,8.8,7.9,14.24,5.49l0.22-0.1 c2.64-1.17,4.66-3.29,5.7-5.98c1.04-2.69,0.96-5.62-0.21-8.26l-25.07-56.5L582.82,366.79z" class="st83"/></g><g><linearGradient id="SVGID_83_" x1="1524.177" x2="1535.58" y1="977.031" y2="977.031" gradientTransform="matrix(-0.8719 -0.4897 -0.4897 0.8719 2427.9292 321.7901)" gradientUnits="userSpaceOnUse"><stop offset="0" style="stop-color:#7f41db"/><stop offset="1" style="stop-color:#03f3f8"/></linearGradient><path d="M617.75,427.08c-1.38,0-2.74-0.35-3.99-1.05c-1.54-0.87-2.73-2.18-3.45-3.8l1.83-0.81 c0.54,1.22,1.44,2.21,2.6,2.86c1.71,0.96,3.72,1.06,5.51,0.26l0.81,1.83C619.99,426.84,618.87,427.08,617.75,427.08z" class="st84"/></g><g><linearGradient id="SVGID_84_" x1="1539.48" x2="1550.478" y1="969.374" y2="969.374" gradientTransform="matrix(-0.8719 -0.4897 -0.4897 0.8719 2427.9292 321.7901)" gradientUnits="userSpaceOnUse"><stop offset="0" style="stop-color:#7f41db"/><stop offset="1" style="stop-color:#03f3f8"/></linearGradient><polygon points="607.73 416.41 602.77 405.22 604.59 404.41 609.55 415.6" class="st85"/></g><g><linearGradient id="SVGID_85_" x1="1551.54" x2="1557.973" y1="962.07" y2="962.07" gradientTransform="matrix(-0.8719 -0.4897 -0.4897 0.8719 2427.9292 321.7901)" gradientUnits="userSpaceOnUse"><stop offset="0" style="stop-color:#7f41db"/><stop offset="1" style="stop-color:#03f3f8"/></linearGradient><polygon points="601.62 402.65 598.97 396.67 600.8 395.86 603.45 401.84" class="st86"/></g></g></g><g><g><linearGradient id="SVGID_86_" x1="1579.033" x2="1681.997" y1="896.457" y2="896.457" gradientTransform="matrix(-0.8719 -0.4897 -0.4897 0.8719 2427.9292 321.7901)" gradientUnits="userSpaceOnUse"><stop offset="0" style="stop-color:#964ae2"/><stop offset="1" style="stop-color:#03ffff"/></linearGradient><path d="M519.31,286.36c-5.28,13.59-4.3,28.28,1.6,40.7c4.86,10.26,13.09,18.97,23.92,24.21 c1.25,0.6,2.57,1.16,3.85,1.65c6.58,2.56,13.44,3.73,20.41,3.5c1.13-0.04,2.27-0.13,3.39-0.25c3.16-0.33,6.28-0.96,9.35-1.87 c2.14-0.65,4.27-1.43,6.32-2.33c1.99-0.89,3.93-1.89,5.75-3.01c9.82-5.88,17.22-14.67,21.38-25.4 c4.97-12.83,4.64-26.8-0.92-39.4c-4.95-11.19-13.7-20.25-24.6-25.53c-1.27-0.59-2.54-1.18-3.87-1.68 c-12.82-4.96-26.87-4.6-39.46,0.98C533.86,263.49,524.21,273.58,519.31,286.36z M550.01,266.04 c10.46-4.63,22.05-4.92,32.66-0.82c1.08,0.44,2.17,0.9,3.2,1.39c9.05,4.38,16.26,11.89,20.34,21.15 c4.63,10.41,4.91,21.98,0.78,32.57c-4.08,10.54-12.05,18.89-22.44,23.52l-0.96,0.41c-1.79,0.72-3.61,1.33-5.44,1.81 c-8.78,2.32-17.87,1.82-26.28-1.42c-1.07-0.43-2.13-0.87-3.16-1.39c-11.07-5.35-18.86-15.08-22.18-26.21 c-2.62-8.78-2.46-18.42,1.05-27.48C531.69,278.99,539.65,270.64,550.01,266.04z M567.15,348.5c-5.32,0-10.6-0.98-15.64-2.92 c-1.11-0.45-2.19-0.89-3.26-1.43c-10.9-5.27-19.17-15.04-22.68-26.81c-2.79-9.38-2.42-19.11,1.07-28.13 c4.21-10.82,12.37-19.37,22.96-24.08h0c10.7-4.74,22.57-5.04,33.42-0.84c1.31,0.53,2.34,0.98,3.28,1.42 c9.25,4.47,16.64,12.16,20.82,21.65c4.74,10.66,5.02,22.5,0.8,33.34c-4.18,10.79-12.34,19.33-22.96,24.07l-0.98,0.41 c-1.86,0.75-3.73,1.37-5.57,1.85C574.69,348.01,570.91,348.5,567.15,348.5z M550.42,266.95c-10.11,4.5-17.89,12.66-21.91,22.98 c-3.33,8.6-3.69,17.88-1.02,26.84c3.35,11.23,11.25,20.55,21.66,25.59c1.01,0.52,2.04,0.94,3.1,1.37 c8.2,3.16,17.08,3.64,25.66,1.38c1.77-0.46,3.56-1.06,5.32-1.77l0.95-0.4c10.12-4.51,17.91-12.67,21.89-22.96 c4.03-10.34,3.76-21.64-0.76-31.8c-3.99-9.06-11.04-16.39-19.86-20.66c-0.89-0.43-1.89-0.86-3.14-1.37 C571.95,262.14,560.62,262.43,550.42,266.95L550.42,266.95z" class="st87"/></g></g></g><g id="XMLID_340_"><g id="XMLID_345_"><g><g><g><path d="M591.79,199.98c8.06,0,14.59,5.63,14.59,12.58c0,4.17-2.35,7.87-5.98,10.16l2.05,5.2l-5.04-3.74 c-1.73,0.63-3.63,0.97-5.63,0.97c-8.06,0-14.59-5.63-14.59-12.59C577.21,205.62,583.74,199.98,591.79,199.98z" class="st88"/><linearGradient id="SVGID_87_" x1="367.054" x2="398.23" y1="214.905" y2="214.905" gradientTransform="matrix(1 0 0 1 209.1524 0)" gradientUnits="userSpaceOnUse"><stop offset="0" style="stop-color:#03f3f8"/><stop offset="1" style="stop-color:#7f41db"/></linearGradient><path d="M604.68,230.83l-7.43-5.52c-1.74,0.57-3.57,0.85-5.45,0.85c-8.59,0-15.59-6.09-15.59-13.59 c0-7.49,6.99-13.58,15.59-13.58c8.59,0,15.59,6.09,15.59,13.58c0,4.09-2.14,7.98-5.75,10.54L604.68,230.83z M597.59,223.06 l2.65,1.97l-1.07-2.7l0.7-0.44c3.45-2.18,5.51-5.66,5.51-9.32c0-6.39-6.1-11.58-13.59-11.58c-7.49,0-13.59,5.2-13.59,11.58 c0,6.39,6.1,11.59,13.59,11.59c1.83,0,3.61-0.31,5.29-0.91L597.59,223.06z" class="st89"/></g></g></g></g><g id="XMLID_341_"><g id="XMLID_344_"><g><g><linearGradient id="SVGID_88_" x1="387.045" x2="391" y1="212.818" y2="212.818" gradientTransform="matrix(1 0 0 1 209.1524 0)" gradientUnits="userSpaceOnUse"><stop offset="0" style="stop-color:#ffca02"/><stop offset="1" style="stop-color:#f03b9a"/></linearGradient><path d="M598.17,214.79c-1.09,0-1.98-0.89-1.98-1.98s0.89-1.98,1.98-1.98c1.09,0,1.98,0.89,1.98,1.98 S599.26,214.79,598.17,214.79z" class="st90"/></g></g></g><g id="XMLID_343_"><g><g><linearGradient id="SVGID_89_" x1="380.665" x2="384.619" y1="212.818" y2="212.818" gradientTransform="matrix(1 0 0 1 209.1524 0)" gradientUnits="userSpaceOnUse"><stop offset="0" style="stop-color:#ffca02"/><stop offset="1" style="stop-color:#f03b9a"/></linearGradient><path d="M591.79,214.79c-1.09,0-1.98-0.89-1.98-1.98s0.89-1.98,1.98-1.98c1.09,0,1.98,0.89,1.98,1.98 S592.88,214.79,591.79,214.79z" class="st91"/></g></g></g><g id="XMLID_342_"><g><g><linearGradient id="SVGID_90_" x1="374.285" x2="378.239" y1="212.818" y2="212.818" gradientTransform="matrix(1 0 0 1 209.1524 0)" gradientUnits="userSpaceOnUse"><stop offset="0" style="stop-color:#ffca02"/><stop offset="1" style="stop-color:#f03b9a"/></linearGradient><path d="M585.41,214.79c-1.09,0-1.98-0.89-1.98-1.98s0.89-1.98,1.98-1.98c1.09,0,1.98,0.89,1.98,1.98 S586.5,214.79,585.41,214.79z" class="st92"/></g></g></g></g></g><g><g><g><linearGradient id="SVGID_91_" x1="509.61" x2="528.6" y1="141.133" y2="141.133" gradientUnits="userSpaceOnUse"><stop offset="0" style="stop-color:#ffca02"/><stop offset="1" style="stop-color:#f03b9a"/></linearGradient><path d="M519.18,148.63h-0.15c-0.46,0-0.9-0.13-1.26-0.39c-0.43-0.3-0.73-0.74-0.86-1.24l-6.9-9.92 c-0.69-1.01-0.44-2.38,0.55-3.07c0.98-0.67,2.4-0.4,3.06,0.56l5.49,7.89l5.49-7.89c0.66-0.96,2.09-1.22,3.06-0.55 c1,0.69,1.25,2.07,0.56,3.07l-6.9,9.92c-0.13,0.5-0.44,0.94-0.87,1.24C520.07,148.5,519.64,148.63,519.18,148.63z M519.16,146.63l0.02,1v-1c0.07,0,0.1-0.02,0.12-0.03c0.04-0.03,0.07-0.07,0.08-0.13l0.03-0.24l7.16-10.29 c0.06-0.09,0.04-0.22-0.05-0.29c-0.06-0.04-0.16-0.13-0.28,0.05l-7.13,10.26l-7.13-10.26c-0.13-0.18-0.22-0.09-0.28-0.05 c-0.09,0.06-0.11,0.19-0.04,0.29l7.15,10.28l0.03,0.24c0.01,0.04,0.02,0.1,0.08,0.14c0.01,0.01,0.04,0.03,0.12,0.03H519.16z" class="st93"/></g></g><g><g><linearGradient id="SVGID_92_" x1="509.609" x2="528.602" y1="130.335" y2="130.335" gradientUnits="userSpaceOnUse"><stop offset="0" style="stop-color:#ffca02"/><stop offset="1" style="stop-color:#f03b9a"/></linearGradient><path d="M519.19,137.83h-0.16c-0.46,0-0.89-0.13-1.26-0.39c-0.43-0.3-0.73-0.74-0.86-1.24l-6.9-9.92 c-0.69-1-0.44-2.38,0.55-3.07c0.96-0.67,2.4-0.41,3.06,0.55l5.49,7.9l5.49-7.9c0.66-0.96,2.1-1.22,3.07-0.55 c0.48,0.33,0.8,0.83,0.91,1.41c0.11,0.58-0.02,1.16-0.36,1.65l-6.9,9.92c-0.13,0.5-0.44,0.94-0.87,1.24 C520.07,137.7,519.64,137.83,519.19,137.83z M519.17,135.83l0.02,1v-1c0.06,0,0.09-0.02,0.12-0.03 c0.06-0.04,0.07-0.1,0.08-0.13l0.03-0.24l7.16-10.29c0.04-0.06,0.04-0.12,0.03-0.15c-0.01-0.04-0.03-0.09-0.08-0.13 c-0.07-0.05-0.16-0.13-0.28,0.04l-7.13,10.27l-7.13-10.26c-0.12-0.18-0.22-0.09-0.28-0.05c-0.09,0.07-0.12,0.19-0.05,0.29 l7.15,10.28l0.03,0.24c0,0.03,0.02,0.1,0.08,0.14c0.01,0.01,0.04,0.03,0.11,0.03H519.17z" class="st94"/></g></g><g><g><linearGradient id="SVGID_93_" x1="509.149" x2="528.138" y1="119.54" y2="119.54" gradientUnits="userSpaceOnUse"><stop offset="0" style="stop-color:#ffca02"/><stop offset="1" style="stop-color:#f03b9a"/></linearGradient><path d="M518.73,127.04h-0.17c-0.46,0-0.89-0.13-1.26-0.39c-0.42-0.29-0.73-0.73-0.86-1.24l-6.9-9.92 c-0.69-1.01-0.44-2.39,0.56-3.07c0.96-0.67,2.39-0.41,3.06,0.55l5.49,7.89l5.48-7.89c0.67-0.96,2.1-1.22,3.06-0.55 c1,0.69,1.25,2.07,0.55,3.07l-6.9,9.92c-0.13,0.51-0.44,0.95-0.87,1.24C519.62,126.9,519.18,127.04,518.73,127.04z M518.71,125.04l0.02,1v-1c0.06,0,0.09-0.02,0.11-0.03c0.06-0.04,0.08-0.1,0.08-0.14l0.03-0.24l7.15-10.28 c0.07-0.09,0.04-0.22-0.05-0.29c-0.06-0.04-0.16-0.13-0.28,0.05l-7.13,10.26l-7.13-10.26c-0.12-0.18-0.22-0.09-0.28-0.05 c-0.1,0.07-0.12,0.2-0.05,0.3l7.14,10.27l0.03,0.24c0,0.03,0.02,0.1,0.08,0.13c0.03,0.02,0.06,0.03,0.11,0.03H518.71z" class="st95"/></g></g><g><g><linearGradient id="SVGID_94_" x1="509.147" x2="528.14" y1="108.743" y2="108.743" gradientUnits="userSpaceOnUse"><stop offset="0" style="stop-color:#ffca02"/><stop offset="1" style="stop-color:#f03b9a"/></linearGradient><path d="M518.73,116.24h-0.18c-0.44,0-0.87-0.13-1.24-0.38c-0.44-0.31-0.74-0.75-0.88-1.25l-6.9-9.93 c-0.69-1-0.44-2.38,0.55-3.07c0.96-0.67,2.4-0.41,3.06,0.55l5.49,7.89l5.48-7.89c0.67-0.96,2.1-1.22,3.06-0.55 c0.49,0.34,0.81,0.84,0.91,1.42c0.11,0.58-0.02,1.17-0.36,1.65l-6.9,9.93c-0.13,0.5-0.44,0.94-0.86,1.24 C519.6,116.11,519.17,116.24,518.73,116.24z M518.72,114.24l0.02,1v-1c0.04,0,0.08-0.01,0.12-0.04 c0.03-0.02,0.06-0.07,0.07-0.13l0.03-0.24l7.15-10.29c0.06-0.08,0.03-0.23-0.05-0.29c-0.06-0.04-0.16-0.13-0.28,0.05 l-7.13,10.26l-7.13-10.26c-0.12-0.18-0.22-0.09-0.28-0.05c-0.09,0.06-0.12,0.19-0.05,0.29l7.15,10.29l0.03,0.24 c0,0.04,0.02,0.1,0.09,0.14c0.02,0.01,0.06,0.03,0.1,0.03H518.72z" class="st96"/></g></g></g><g><g><g><linearGradient id="SVGID_95_" x1="247.786" x2="266.777" y1="138.476" y2="138.476" gradientUnits="userSpaceOnUse"><stop offset="0" style="stop-color:#ffca02"/><stop offset="1" style="stop-color:#f03b9a"/></linearGradient><path d="M257.36,145.97h-0.15c-0.46,0-0.9-0.13-1.26-0.39c-0.43-0.3-0.73-0.74-0.86-1.24l-6.9-9.92 c-0.69-1.01-0.44-2.38,0.55-3.07c0.98-0.67,2.4-0.4,3.06,0.56l5.49,7.89l5.49-7.89c0.66-0.96,2.09-1.22,3.06-0.56 c1,0.69,1.25,2.07,0.56,3.07l-6.9,9.92c-0.13,0.5-0.44,0.94-0.87,1.24C258.25,145.84,257.81,145.97,257.36,145.97z M257.34,143.97l0.02,1v-1c0.07,0,0.1-0.02,0.12-0.03c0.04-0.03,0.07-0.07,0.08-0.13l0.03-0.24l7.15-10.29 c0.06-0.09,0.04-0.22-0.05-0.29c-0.06-0.04-0.16-0.13-0.28,0.05l-7.13,10.26l-7.13-10.26c-0.13-0.18-0.22-0.09-0.28-0.05 c-0.09,0.06-0.11,0.19-0.04,0.29l7.15,10.28l0.03,0.24c0.01,0.04,0.02,0.1,0.08,0.14c0.01,0.01,0.04,0.03,0.12,0.03H257.34z" class="st97"/></g></g><g><g><linearGradient id="SVGID_96_" x1="247.786" x2="266.778" y1="127.679" y2="127.679" gradientUnits="userSpaceOnUse"><stop offset="0" style="stop-color:#ffca02"/><stop offset="1" style="stop-color:#f03b9a"/></linearGradient><path d="M257.36,135.18h-0.16c-0.46,0-0.89-0.14-1.26-0.39c-0.43-0.3-0.73-0.74-0.86-1.24l-6.9-9.92 c-0.69-1-0.44-2.38,0.55-3.07c0.95-0.67,2.4-0.41,3.06,0.55l5.49,7.9l5.49-7.9c0.66-0.96,2.1-1.22,3.07-0.55 c0.48,0.33,0.8,0.83,0.91,1.41c0.1,0.58-0.02,1.17-0.36,1.65l-6.9,9.92c-0.13,0.5-0.44,0.94-0.87,1.24 C258.25,135.04,257.81,135.18,257.36,135.18z M257.34,133.18l0.02,1v-1c0.06,0,0.09-0.02,0.12-0.03 c0.06-0.04,0.07-0.1,0.08-0.13l0.03-0.24l7.15-10.29c0.04-0.06,0.04-0.11,0.03-0.15c-0.01-0.04-0.03-0.09-0.08-0.13 c-0.07-0.05-0.16-0.13-0.28,0.04l-7.13,10.27l-7.13-10.26c-0.12-0.17-0.22-0.09-0.28-0.05c-0.09,0.07-0.12,0.19-0.05,0.29 l7.15,10.28l0.03,0.24c0,0.03,0.02,0.1,0.08,0.14c0.01,0.01,0.04,0.03,0.11,0.03H257.34z" class="st98"/></g></g><g><g><linearGradient id="SVGID_97_" x1="247.326" x2="266.314" y1="116.884" y2="116.884" gradientUnits="userSpaceOnUse"><stop offset="0" style="stop-color:#ffca02"/><stop offset="1" style="stop-color:#f03b9a"/></linearGradient><path d="M256.91,124.38h-0.17c-0.46,0-0.89-0.14-1.26-0.39c-0.42-0.29-0.73-0.73-0.86-1.24l-6.9-9.92 c-0.69-1.01-0.44-2.39,0.56-3.07c0.96-0.67,2.39-0.41,3.06,0.55l5.49,7.9l5.48-7.9c0.67-0.96,2.1-1.22,3.06-0.55 c1,0.69,1.25,2.07,0.55,3.07l-6.9,9.92c-0.13,0.5-0.44,0.95-0.87,1.24C257.79,124.24,257.36,124.38,256.91,124.38z M256.89,122.38l0.02,1v-1c0.06,0,0.09-0.02,0.11-0.03c0.06-0.04,0.08-0.1,0.08-0.14l0.03-0.24l7.15-10.28 c0.06-0.09,0.04-0.22-0.05-0.29c-0.06-0.04-0.16-0.13-0.28,0.05l-7.13,10.26l-7.13-10.26c-0.12-0.18-0.22-0.09-0.28-0.05 c-0.1,0.07-0.12,0.2-0.05,0.3l7.14,10.27l0.03,0.24c0,0.03,0.02,0.1,0.08,0.13c0.03,0.02,0.06,0.03,0.11,0.03L256.89,122.38z" class="st99"/></g></g><g><g><linearGradient id="SVGID_98_" x1="247.324" x2="266.316" y1="106.086" y2="106.086" gradientUnits="userSpaceOnUse"><stop offset="0" style="stop-color:#ffca02"/><stop offset="1" style="stop-color:#f03b9a"/></linearGradient><path d="M256.91,113.58h-0.18c-0.44,0-0.87-0.13-1.24-0.38c-0.44-0.31-0.74-0.75-0.88-1.25l-6.9-9.93 c-0.69-1-0.44-2.38,0.55-3.07c0.96-0.67,2.4-0.41,3.06,0.55l5.49,7.89l5.48-7.89c0.67-0.96,2.1-1.22,3.06-0.55 c0.48,0.34,0.81,0.84,0.91,1.42c0.11,0.58-0.02,1.17-0.36,1.65l-6.9,9.93c-0.13,0.5-0.44,0.94-0.86,1.24 C257.78,113.45,257.35,113.58,256.91,113.58z M256.89,111.58l0.02,1v-1c0.04,0,0.08-0.01,0.12-0.04 c0.03-0.02,0.06-0.07,0.07-0.13l0.03-0.24l7.15-10.29c0.06-0.08,0.03-0.23-0.05-0.29c-0.06-0.04-0.16-0.13-0.28,0.05 l-7.13,10.26l-7.13-10.26c-0.12-0.18-0.22-0.09-0.28-0.05c-0.09,0.06-0.12,0.19-0.05,0.29l7.15,10.29l0.03,0.24 c0.01,0.04,0.02,0.1,0.08,0.14c0.02,0.01,0.06,0.03,0.1,0.03H256.89z" class="st100"/></g></g></g><g><g><linearGradient id="SVGID_99_" x1="130.997" x2="227.997" y1="224.751" y2="224.751" gradientUnits="userSpaceOnUse"><stop offset="0" style="stop-color:#ffca02"/><stop offset="1" style="stop-color:#f03b9a"/></linearGradient><path d="M161.23,231.09c-4.18,0-8.11-1.51-11.07-4.26c-1.92-1.78-4.47-2.76-7.2-2.76c-2.73,0-5.28,0.98-7.2,2.76 c-1.11,1.03-2.99,0.96-4.02-0.15c-1.07-1.15-1-2.95,0.15-4.02c2.96-2.75,6.89-4.26,11.07-4.26c4.18,0,8.11,1.51,11.07,4.26 c1.91,1.78,4.47,2.76,7.2,2.76c2.73,0,5.28-0.98,7.2-2.76c2.96-2.75,6.88-4.26,11.07-4.26c4.18,0,8.11,1.51,11.07,4.26 c1.91,1.78,4.47,2.76,7.2,2.76c2.73,0,5.28-0.98,7.2-2.76c2.95-2.75,6.88-4.26,11.06-4.26c4.18,0,8.11,1.51,11.07,4.26 c1.15,1.07,1.21,2.87,0.15,4.02c-1.03,1.11-2.91,1.17-4.02,0.15c-1.92-1.78-4.47-2.76-7.2-2.76c-2.73,0-5.28,0.98-7.19,2.76 c-2.96,2.75-6.89,4.26-11.07,4.26c-4.18,0-8.11-1.51-11.06-4.26c-1.92-1.78-4.47-2.76-7.2-2.76c-2.73,0-5.28,0.98-7.2,2.76 C169.34,229.58,165.41,231.09,161.23,231.09z M142.97,222.07c3.23,0,6.27,1.17,8.56,3.29c2.58,2.4,6.03,3.72,9.7,3.72 c3.67,0,7.12-1.32,9.71-3.72c2.29-2.12,5.33-3.29,8.56-3.29c3.23,0,6.27,1.17,8.56,3.29c2.58,2.4,6.03,3.72,9.7,3.72 c3.68,0,7.12-1.32,9.71-3.72c2.28-2.12,5.32-3.29,8.56-3.29c3.23,0,6.27,1.17,8.56,3.29c0.33,0.31,0.88,0.29,1.19-0.04 c0.32-0.34,0.3-0.87-0.04-1.19c-2.58-2.4-6.03-3.72-9.7-3.72c-3.67,0-7.12,1.32-9.7,3.72c-2.29,2.12-5.33,3.29-8.56,3.29 c-3.23,0-6.27-1.17-8.56-3.29c-2.58-2.4-6.03-3.72-9.71-3.72c-3.67,0-7.12,1.32-9.7,3.72c-2.29,2.12-5.33,3.29-8.56,3.29 c-3.23,0-6.27-1.17-8.56-3.29c-2.58-2.4-6.03-3.72-9.71-3.72c-3.67,0-7.12,1.32-9.71,3.72c-0.34,0.32-0.36,0.85-0.04,1.19 c0.3,0.33,0.86,0.35,1.19,0.04C136.7,223.24,139.74,222.07,142.97,222.07z" class="st101"/></g></g><g><g><linearGradient id="SVGID_100_" x1="557.207" x2="597.207" y1="175.445" y2="175.445" gradientUnits="userSpaceOnUse"><stop offset="0" style="stop-color:#fc0"/><stop offset="1" style="stop-color:#f0399c"/></linearGradient><rect width="40" height="2" x="557.21" y="174.45" class="st102"/></g><g><linearGradient id="SVGID_101_" x1="489.61" x2="529.61" y1="89.13" y2="89.13" gradientUnits="userSpaceOnUse"><stop offset="0" style="stop-color:#fc0"/><stop offset="1" style="stop-color:#f0399c"/></linearGradient><rect width="40" height="2" x="489.61" y="88.13" class="st103"/></g><g><linearGradient id="SVGID_102_" x1="542.56" x2="582.56" y1="244.096" y2="244.096" gradientUnits="userSpaceOnUse"><stop offset="0" style="stop-color:#fc0"/><stop offset="1" style="stop-color:#f0399c"/></linearGradient><rect width="40" height="2" x="542.56" y="243.1" class="st104"/></g><g><linearGradient id="SVGID_103_" x1="586.726" x2="597.633" y1="244.096" y2="244.096" gradientUnits="userSpaceOnUse"><stop offset="0" style="stop-color:#fc0"/><stop offset="1" style="stop-color:#f0399c"/></linearGradient><rect width="10.91" height="2" x="586.73" y="243.1" class="st105"/></g><g><linearGradient id="SVGID_104_" x1="538.967" x2="561.331" y1="142.87" y2="142.87" gradientUnits="userSpaceOnUse"><stop offset="0" style="stop-color:#fc0"/><stop offset="1" style="stop-color:#f0399c"/></linearGradient><rect width="22.36" height="2" x="538.97" y="141.87" class="st106"/></g><g><linearGradient id="SVGID_105_" x1="498.428" x2="520.792" y1="159.934" y2="159.934" gradientUnits="userSpaceOnUse"><stop offset="0" style="stop-color:#fc0"/><stop offset="1" style="stop-color:#f0399c"/></linearGradient><rect width="22.36" height="2" x="498.43" y="158.93" class="st107"/></g><g><linearGradient id="SVGID_106_" x1="558.943" x2="569.082" y1="131.163" y2="131.163" gradientUnits="userSpaceOnUse"><stop offset="0" style="stop-color:#fc0"/><stop offset="1" style="stop-color:#f0399c"/></linearGradient><rect width="10.14" height="2" x="558.94" y="130.16" class="st108"/></g><g><linearGradient id="SVGID_107_" x1="541.754" x2="548.615" y1="158.934" y2="158.934" gradientUnits="userSpaceOnUse"><stop offset="0" style="stop-color:#fc0"/><stop offset="1" style="stop-color:#f0399c"/></linearGradient><path d="M545.18,162.36c-1.89,0-3.43-1.54-3.43-3.43c0-1.89,1.54-3.43,3.43-3.43c1.89,0,3.43,1.54,3.43,3.43 C548.61,160.83,547.08,162.36,545.18,162.36z M545.18,157.5c-0.79,0-1.43,0.64-1.43,1.43c0,0.79,0.64,1.43,1.43,1.43 c0.79,0,1.43-0.64,1.43-1.43C546.61,158.14,545.97,157.5,545.18,157.5z" class="st109"/></g><g><linearGradient id="SVGID_108_" x1="625.761" x2="635.901" y1="239.717" y2="239.717" gradientUnits="userSpaceOnUse"><stop offset="0" style="stop-color:#fc0"/><stop offset="1" style="stop-color:#f0399c"/></linearGradient><rect width="10.14" height="2" x="625.76" y="238.72" class="st110"/></g><g><linearGradient id="SVGID_109_" x1="610.115" x2="616.975" y1="251.474" y2="251.474" gradientUnits="userSpaceOnUse"><stop offset="0" style="stop-color:#fc0"/><stop offset="1" style="stop-color:#f0399c"/></linearGradient><path d="M613.55,254.9c-1.89,0-3.43-1.54-3.43-3.43c0-1.89,1.54-3.43,3.43-3.43s3.43,1.54,3.43,3.43 C616.98,253.37,615.44,254.9,613.55,254.9z M613.55,250.04c-0.79,0-1.43,0.64-1.43,1.43c0,0.79,0.64,1.43,1.43,1.43 c0.79,0,1.43-0.64,1.43-1.43C614.98,250.68,614.33,250.04,613.55,250.04z" class="st111"/></g><g><linearGradient id="SVGID_110_" x1="220.143" x2="227.004" y1="163.863" y2="163.863" gradientUnits="userSpaceOnUse"><stop offset="0" style="stop-color:#fc0"/><stop offset="1" style="stop-color:#f0399c"/></linearGradient><path d="M223.57,167.29c-1.89,0-3.43-1.54-3.43-3.43c0-1.89,1.54-3.43,3.43-3.43s3.43,1.54,3.43,3.43 C227,165.75,225.47,167.29,223.57,167.29z M223.57,162.43c-0.79,0-1.43,0.64-1.43,1.43c0,0.79,0.64,1.43,1.43,1.43 c0.79,0,1.43-0.64,1.43-1.43C225,163.07,224.36,162.43,223.57,162.43z" class="st112"/></g><g><g><linearGradient id="SVGID_111_" x1="564.667" x2="570.096" y1="201.163" y2="201.163" gradientUnits="userSpaceOnUse"><stop offset="0" style="stop-color:#fc0"/><stop offset="1" style="stop-color:#f0399c"/></linearGradient><polygon points="566.08 203.88 564.67 202.46 568.68 198.45 570.1 199.86" class="st113"/></g><g><linearGradient id="SVGID_112_" x1="1326.553" x2="1331.983" y1="668.997" y2="668.997" gradientTransform="matrix(0 1 -1 0 1236.3784 -1128.1053)" gradientUnits="userSpaceOnUse"><stop offset="0" style="stop-color:#fc0"/><stop offset="1" style="stop-color:#f0399c"/></linearGradient><polygon points="568.68 203.88 564.67 199.86 566.08 198.45 570.1 202.46" class="st114"/></g></g><g><g><linearGradient id="SVGID_113_" x1="563.946" x2="569.375" y1="100.512" y2="100.512" gradientUnits="userSpaceOnUse"><stop offset="0" style="stop-color:#fc0"/><stop offset="1" style="stop-color:#f0399c"/></linearGradient><polygon points="565.36 103.23 563.95 101.81 567.96 97.8 569.38 99.21" class="st115"/></g><g><linearGradient id="SVGID_114_" x1="1225.902" x2="1231.332" y1="669.718" y2="669.718" gradientTransform="matrix(0 1 -1 0 1236.3784 -1128.1053)" gradientUnits="userSpaceOnUse"><stop offset="0" style="stop-color:#fc0"/><stop offset="1" style="stop-color:#f0399c"/></linearGradient><polygon points="567.96 103.23 563.95 99.21 565.36 97.8 569.38 101.81" class="st116"/></g></g><g><linearGradient id="SVGID_115_" x1="2075.384" x2="2115.384" y1="-51.715" y2="-51.715" gradientTransform="matrix(-1 0 0 -1 2286.6094 122.7305)" gradientUnits="userSpaceOnUse"><stop offset="0" style="stop-color:#fc0"/><stop offset="1" style="stop-color:#f0399c"/></linearGradient><rect width="40" height="2" x="171.23" y="173.45" class="st117"/></g><g><linearGradient id="SVGID_116_" x1="2059.43" x2="2099.43" y1="14.946" y2="14.946" gradientTransform="matrix(-1 0 0 -1 2286.6094 122.7305)" gradientUnits="userSpaceOnUse"><stop offset="0" style="stop-color:#fc0"/><stop offset="1" style="stop-color:#f0399c"/></linearGradient><rect width="40" height="2" x="187.18" y="106.78" class="st118"/></g><g><linearGradient id="SVGID_117_" x1="2135.39" x2="2164.442" y1="-51.715" y2="-51.715" gradientTransform="matrix(-1 0 0 -1 2286.6094 122.7305)" gradientUnits="userSpaceOnUse"><stop offset="0" style="stop-color:#fc0"/><stop offset="1" style="stop-color:#f0399c"/></linearGradient><rect width="29.05" height="2" x="122.17" y="173.45" class="st119"/></g><g><linearGradient id="SVGID_118_" x1="2151.652" x2="2159.573" y1="-16.286" y2="-16.286" gradientTransform="matrix(-1 0 0 -1 2286.6094 122.7305)" gradientUnits="userSpaceOnUse"><stop offset="0" style="stop-color:#fc0"/><stop offset="1" style="stop-color:#f0399c"/></linearGradient><rect width="7.92" height="2" x="127.04" y="138.02" class="st120"/></g><g><linearGradient id="SVGID_119_" x1="2097.427" x2="2128.993" y1="-86.044" y2="-86.044" gradientTransform="matrix(-1 0 0 -1 2286.6094 122.7305)" gradientUnits="userSpaceOnUse"><stop offset="0" style="stop-color:#fc0"/><stop offset="1" style="stop-color:#f0399c"/></linearGradient><rect width="31.57" height="2" x="157.62" y="207.77" class="st121"/></g><g><linearGradient id="SVGID_120_" x1="2149.968" x2="2164.28" y1="-86.044" y2="-86.044" gradientTransform="matrix(-1 0 0 -1 2286.6094 122.7305)" gradientUnits="userSpaceOnUse"><stop offset="0" style="stop-color:#fc0"/><stop offset="1" style="stop-color:#f0399c"/></linearGradient><rect width="14.31" height="2" x="122.33" y="207.77" class="st122"/></g><g><linearGradient id="SVGID_121_" x1="2079.43" x2="2086.291" y1="36.195" y2="36.195" gradientTransform="matrix(-1 0 0 -1 2286.6094 122.7305)" gradientUnits="userSpaceOnUse"><stop offset="0" style="stop-color:#fc0"/><stop offset="1" style="stop-color:#f0399c"/></linearGradient><path d="M203.75,89.97c-1.89,0-3.43-1.54-3.43-3.43s1.54-3.43,3.43-3.43s3.43,1.54,3.43,3.43 S205.64,89.97,203.75,89.97z M203.75,85.11c-0.79,0-1.43,0.64-1.43,1.43c0,0.79,0.64,1.43,1.43,1.43c0.79,0,1.43-0.64,1.43-1.43 C205.18,85.75,204.54,85.11,203.75,85.11z" class="st123"/></g><g><linearGradient id="SVGID_122_" x1="2146.487" x2="2153.349" y1="-64.977" y2="-64.977" gradientTransform="matrix(-1 0 0 -1 2286.6094 122.7305)" gradientUnits="userSpaceOnUse"><stop offset="0" style="stop-color:#fc0"/><stop offset="1" style="stop-color:#f0399c"/></linearGradient><path d="M136.69,191.14c-1.89,0-3.43-1.54-3.43-3.43c0-1.89,1.54-3.43,3.43-3.43c1.89,0,3.43,1.54,3.43,3.43 C140.12,189.6,138.58,191.14,136.69,191.14z M136.69,186.28c-0.79,0-1.43,0.64-1.43,1.43c0,0.79,0.64,1.43,1.43,1.43 c0.79,0,1.43-0.64,1.43-1.43C138.12,186.92,137.48,186.28,136.69,186.28z" class="st124"/></g><g><linearGradient id="SVGID_123_" x1="1721.849" x2="1728.709" y1="-95.201" y2="-95.201" gradientTransform="matrix(-1 0 0 -1 2286.6094 122.7305)" gradientUnits="userSpaceOnUse"><stop offset="0" style="stop-color:#fc0"/><stop offset="1" style="stop-color:#f0399c"/></linearGradient><path d="M561.33,221.36c-1.89,0-3.43-1.54-3.43-3.43s1.54-3.43,3.43-3.43s3.43,1.54,3.43,3.43 S563.22,221.36,561.33,221.36z M561.33,216.5c-0.79,0-1.43,0.64-1.43,1.43c0,0.79,0.64,1.43,1.43,1.43 c0.79,0,1.43-0.64,1.43-1.43C562.76,217.14,562.12,216.5,561.33,216.5z" class="st125"/></g><g><linearGradient id="SVGID_124_" x1="2097.427" x2="2102.857" y1="29.251" y2="29.251" gradientTransform="matrix(-1 0 0 -1 2286.6094 122.7305)" gradientUnits="userSpaceOnUse"><stop offset="0" style="stop-color:#fc0"/><stop offset="1" style="stop-color:#f0399c"/></linearGradient><polygon points="185.17 96.19 183.75 94.78 187.77 90.76 189.18 92.18" class="st126"/></g><g><g><linearGradient id="SVGID_125_" x1="2048.097" x2="2053.527" y1="31.966" y2="31.966" gradientTransform="matrix(-1 0 0 -1 2286.6094 122.7305)" gradientUnits="userSpaceOnUse"><stop offset="0" style="stop-color:#fc0"/><stop offset="1" style="stop-color:#f0399c"/></linearGradient><polygon points="234.5 93.48 233.08 92.07 237.1 88.05 238.51 89.46" class="st127"/></g><g><linearGradient id="SVGID_126_" x1="1157.356" x2="1162.787" y1="-814.433" y2="-814.433" gradientTransform="matrix(0 -1 1 0 1050.2303 1250.8354)" gradientUnits="userSpaceOnUse"><stop offset="0" style="stop-color:#fc0"/><stop offset="1" style="stop-color:#f0399c"/></linearGradient><polygon points="237.1 93.48 233.08 89.46 234.5 88.05 238.51 92.07" class="st128"/></g></g><g><g><linearGradient id="SVGID_127_" x1="2060.321" x2="2065.751" y1="-130.732" y2="-130.732" gradientTransform="matrix(-1 0 0 -1 2286.6094 122.7305)" gradientUnits="userSpaceOnUse"><stop offset="0" style="stop-color:#fc0"/><stop offset="1" style="stop-color:#f0399c"/></linearGradient><polygon points="222.27 256.18 220.86 254.76 224.87 250.75 226.29 252.16" class="st129"/></g><g><linearGradient id="SVGID_128_" x1="994.658" x2="1000.087" y1="-826.657" y2="-826.657" gradientTransform="matrix(0 -1 1 0 1050.2303 1250.8354)" gradientUnits="userSpaceOnUse"><stop offset="0" style="stop-color:#fc0"/><stop offset="1" style="stop-color:#f0399c"/></linearGradient><polygon points="224.87 256.18 220.86 252.16 222.27 250.75 226.29 254.76" class="st130"/></g></g><g><linearGradient id="SVGID_129_" x1="2057.213" x2="2079.576" y1="-72.645" y2="-72.645" gradientTransform="matrix(-1 0 0 -1 2286.6094 122.7305)" gradientUnits="userSpaceOnUse"><stop offset="0" style="stop-color:#fc0"/><stop offset="1" style="stop-color:#f0399c"/></linearGradient><rect width="22.36" height="2" x="207.03" y="194.38" class="st131"/></g><g><linearGradient id="SVGID_130_" x1="2094.437" x2="2104.576" y1="-72.645" y2="-72.645" gradientTransform="matrix(-1 0 0 -1 2286.6094 122.7305)" gradientUnits="userSpaceOnUse"><stop offset="0" style="stop-color:#fc0"/><stop offset="1" style="stop-color:#f0399c"/></linearGradient><rect width="10.14" height="2" x="182.03" y="194.38" class="st132"/></g><g><linearGradient id="SVGID_131_" x1="2013.699" x2="2020.561" y1="-36.203" y2="-36.203" gradientTransform="matrix(-1 0 0 -1 2286.6094 122.7305)" gradientUnits="userSpaceOnUse"><stop offset="0" style="stop-color:#fc0"/><stop offset="1" style="stop-color:#f0399c"/></linearGradient><path d="M269.48,162.36c-1.89,0-3.43-1.54-3.43-3.43c0-1.89,1.54-3.43,3.43-3.43s3.43,1.54,3.43,3.43 C272.91,160.83,271.37,162.36,269.48,162.36z M269.48,157.5c-0.79,0-1.43,0.64-1.43,1.43c0,0.79,0.64,1.43,1.43,1.43 c0.79,0,1.43-0.64,1.43-1.43C270.91,158.14,270.27,157.5,269.48,157.5z" class="st133"/></g><g><linearGradient id="SVGID_132_" x1="2104.314" x2="2112.235" y1="-139.1" y2="-139.1" gradientTransform="matrix(-1 0 0 -1 2286.6094 122.7305)" gradientUnits="userSpaceOnUse"><stop offset="0" style="stop-color:#fc0"/><stop offset="1" style="stop-color:#f0399c"/></linearGradient><rect width="7.92" height="2" x="174.37" y="260.83" class="st134"/></g><g><g><linearGradient id="SVGID_133_" x1="2117.124" x2="2122.553" y1="-124.08" y2="-124.08" gradientTransform="matrix(-1 0 0 -1 2286.6094 122.7305)" gradientUnits="userSpaceOnUse"><stop offset="0" style="stop-color:#fc0"/><stop offset="1" style="stop-color:#f0399c"/></linearGradient><polygon points="165.47 249.53 164.06 248.11 168.07 244.1 169.49 245.51" class="st135"/></g><g><linearGradient id="SVGID_134_" x1="1001.31" x2="1006.74" y1="-883.46" y2="-883.46" gradientTransform="matrix(0 -1 1 0 1050.2303 1250.8354)" gradientUnits="userSpaceOnUse"><stop offset="0" style="stop-color:#fc0"/><stop offset="1" style="stop-color:#f0399c"/></linearGradient><polygon points="168.07 249.53 164.06 245.51 165.47 244.1 169.49 248.11" class="st136"/></g></g><g><linearGradient id="SVGID_135_" x1="2089.609" x2="2096.47" y1="-126.795" y2="-126.795" gradientTransform="matrix(-1 0 0 -1 2286.6094 122.7305)" gradientUnits="userSpaceOnUse"><stop offset="0" style="stop-color:#fc0"/><stop offset="1" style="stop-color:#f0399c"/></linearGradient><path d="M193.57,252.96c-1.89,0-3.43-1.54-3.43-3.43s1.54-3.43,3.43-3.43c1.89,0,3.43,1.54,3.43,3.43 S195.46,252.96,193.57,252.96z M193.57,248.09c-0.79,0-1.43,0.64-1.43,1.43c0,0.79,0.64,1.43,1.43,1.43 c0.79,0,1.43-0.64,1.43-1.43C195,248.74,194.36,248.09,193.57,248.09z" class="st137"/></g><g><g><linearGradient id="SVGID_136_" x1="2011.7" x2="2017.13" y1="41.355" y2="41.355" gradientTransform="matrix(-1 0 0 -1 2286.6094 122.7305)" gradientUnits="userSpaceOnUse"><stop offset="0" style="stop-color:#fc0"/><stop offset="1" style="stop-color:#f0399c"/></linearGradient><polygon points="270.89 84.09 269.48 82.68 273.5 78.66 274.91 80.07" class="st138"/></g><g><linearGradient id="SVGID_137_" x1="1166.745" x2="1172.175" y1="-778.036" y2="-778.036" gradientTransform="matrix(0 -1 1 0 1050.2303 1250.8354)" gradientUnits="userSpaceOnUse"><stop offset="0" style="stop-color:#fc0"/><stop offset="1" style="stop-color:#f0399c"/></linearGradient><polygon points="273.5 84.09 269.48 80.07 270.89 78.66 274.91 82.68" class="st139"/></g></g><g><g><linearGradient id="SVGID_138_" x1="2117.124" x2="2122.554" y1="9.148" y2="9.148" gradientTransform="matrix(-1 0 0 -1 2286.6094 122.7305)" gradientUnits="userSpaceOnUse"><stop offset="0" style="stop-color:#fc0"/><stop offset="1" style="stop-color:#f0399c"/></linearGradient><polygon points="165.47 116.3 164.06 114.88 168.07 110.87 169.49 112.28" class="st140"/></g><g><linearGradient id="SVGID_139_" x1="1134.538" x2="1139.967" y1="-883.46" y2="-883.46" gradientTransform="matrix(0 -1 1 0 1050.2303 1250.8354)" gradientUnits="userSpaceOnUse"><stop offset="0" style="stop-color:#fc0"/><stop offset="1" style="stop-color:#f0399c"/></linearGradient><polygon points="168.07 116.3 164.06 112.28 165.47 110.87 169.49 114.88" class="st141"/></g></g></g><g><g><path d="M254.12,407.37v9.85c0,7.46,6.04,13.5,13.5,13.5l0,0c7.46,0,13.5-6.04,13.5-13.5v-9.85H254.12z" class="st142"/></g><g><g><path d="M254.12,407.37v9.85c0,7.46,6.04,13.5,13.5,13.5l0,0c7.46,0,13.5-6.04,13.5-13.5v-9.85H254.12z" class="st18"/><linearGradient id="SVGID_140_" x1="253.116" x2="282.114" y1="419.043" y2="419.043" gradientUnits="userSpaceOnUse"><stop offset="0" style="stop-color:#7f41db"/><stop offset="1" style="stop-color:#03f3f8"/></linearGradient><path d="M267.62,431.72c-7.99,0-14.5-6.5-14.5-14.5v-9.85c0-0.55,0.45-1,1-1h27c0.55,0,1,0.45,1,1v9.85 C282.11,425.21,275.61,431.72,267.62,431.72z M255.12,408.37v8.85c0,6.89,5.61,12.5,12.5,12.5s12.5-5.61,12.5-12.5v-8.85 H255.12z" class="st143"/></g></g><g><g><path d="M276.78,298.83L276.78,298.83v-17.96h-18.33v17.96l0,0c-2.39,0-4.33,1.94-4.33,4.33v104.21h27V303.16 C281.11,300.77,279.17,298.83,276.78,298.83z" class="st18"/><linearGradient id="SVGID_141_" x1="253.116" x2="282.114" y1="344.119" y2="344.119" gradientUnits="userSpaceOnUse"><stop offset="0" style="stop-color:#7f41db"/><stop offset="1" style="stop-color:#03f3f8"/></linearGradient><path d="M281.11,408.37h-27c-0.55,0-1-0.45-1-1v-104.2c0-2.6,1.87-4.77,4.33-5.24v-17.05c0-0.55,0.45-1,1-1 h18.33c0.55,0,1,0.45,1,1v17.05c2.46,0.47,4.33,2.64,4.33,5.24v104.2C282.11,407.92,281.67,408.37,281.11,408.37z M255.12,406.37h25v-103.2c0-1.84-1.5-3.33-3.33-3.33c-0.55,0-1-0.45-1-1v-16.96h-16.33v16.96c0,0.55-0.45,1-1,1 c-1.84,0-3.33,1.5-3.33,3.33V406.37z" class="st144"/></g></g><g><linearGradient id="SVGID_142_" x1="267.615" x2="267.615" y1="280.869" y2="170.062" gradientUnits="userSpaceOnUse"><stop offset="0" style="stop-color:#964ae2"/><stop offset="1" style="stop-color:#03ffff"/></linearGradient><path d="M275.49,267.34h-1.57v-56.79h0.17c3.62,0,6.59-2.96,6.59-6.59V183.1c0-7.17-5.87-13.04-13.04-13.04 c-7.2,0-13.1,5.89-13.1,13.1v20.63c0,3.72,3.04,6.76,6.76,6.76v56.79h-1.57c-3.73,0-6.76,3.03-6.76,6.76 c0,3.73,3.03,6.76,6.76,6.76h15.75c3.73,0,6.76-3.03,6.76-6.76C282.25,270.37,279.23,267.34,275.49,267.34z" class="st145"/><linearGradient id="SVGID_143_" x1="251.977" x2="283.253" y1="225.466" y2="225.466" gradientUnits="userSpaceOnUse"><stop offset="0" style="stop-color:#03f3f8"/><stop offset="1" style="stop-color:#7f41db"/></linearGradient><path d="M275.49,281.87h-15.75c-4.28,0-7.76-3.48-7.76-7.76c0-4.28,3.48-7.76,7.76-7.76h0.57v-54.86 c-3.81-0.49-6.76-3.76-6.76-7.7v-20.63c0-7.77,6.32-14.09,14.09-14.09c7.74,0,14.04,6.3,14.04,14.04v20.86 c0,3.91-2.97,7.13-6.76,7.54v54.84h0.57c4.28,0,7.76,3.48,7.76,7.76C283.25,278.39,279.77,281.87,275.49,281.87z M259.74,268.34 c-3.18,0-5.76,2.58-5.76,5.76c0,3.18,2.59,5.76,5.76,5.76h15.75c3.18,0,5.76-2.58,5.76-5.76c0-3.18-2.58-5.76-5.76-5.76h-2.57 v-58.79h1.17c3.08,0,5.59-2.51,5.59-5.59V183.1c0-6.64-5.4-12.04-12.04-12.04c-6.67,0-12.09,5.43-12.09,12.09v20.63 c0,3.18,2.59,5.76,5.76,5.76h1v58.79H259.74z" class="st146"/></g></g><g><g><linearGradient id="SVGID_144_" x1="402.373" x2="538.292" y1="430.718" y2="430.718" gradientUnits="userSpaceOnUse"><stop offset="0" style="stop-color:#ffca02"/><stop offset=".239" style="stop-color:#fa9a35"/><stop offset=".479" style="stop-color:#f67160"/><stop offset=".694" style="stop-color:#f35480"/><stop offset=".875" style="stop-color:#f14193"/><stop offset="1" style="stop-color:#f03b9a"/></linearGradient><rect width="135.92" height="25.6" x="402.37" y="417.92" class="st147"/><path d="M539.29,444.52H401.37v-27.6h137.92V444.52z M403.37,442.52h133.92v-23.6H403.37V442.52z" class="st18"/></g><g><path d="M419.56,435.63c0,2.05-1.67,3.72-3.72,3.72c-2.05,0-3.72-1.67-3.72-3.72c0-2.05,1.67-3.72,3.72-3.72 C417.9,431.91,419.56,433.57,419.56,435.63z" class="st18"/><linearGradient id="SVGID_145_" x1="410.783" x2="420.901" y1="435.626" y2="435.626" gradientUnits="userSpaceOnUse"><stop offset="0" style="stop-color:#964ae2"/><stop offset=".238" style="stop-color:#944de2"/><stop offset=".39" style="stop-color:#8d55e4"/><stop offset=".518" style="stop-color:#8164e6"/><stop offset=".632" style="stop-color:#7079ea"/><stop offset=".738" style="stop-color:#5a94ee"/><stop offset=".837" style="stop-color:#3fb5f3"/><stop offset=".929" style="stop-color:#20dcf9"/><stop offset="1" style="stop-color:#03ffff"/></linearGradient><path d="M415.84,440.68c-2.79,0-5.06-2.27-5.06-5.06c0-2.79,2.27-5.06,5.06-5.06c2.79,0,5.06,2.27,5.06,5.06 C420.9,438.41,418.63,440.68,415.84,440.68z M415.84,433.25c-1.31,0-2.38,1.07-2.38,2.38s1.07,2.38,2.38,2.38 c1.31,0,2.38-1.07,2.38-2.38S417.16,433.25,415.84,433.25z" class="st148"/></g><g><path d="M435.34,435.63c0,2.05-1.67,3.72-3.72,3.72c-2.05,0-3.72-1.67-3.72-3.72c0-2.05,1.67-3.72,3.72-3.72 C433.68,431.91,435.34,433.57,435.34,435.63z" class="st18"/><linearGradient id="SVGID_146_" x1="426.563" x2="436.679" y1="435.626" y2="435.626" gradientUnits="userSpaceOnUse"><stop offset="0" style="stop-color:#964ae2"/><stop offset=".238" style="stop-color:#944de2"/><stop offset=".39" style="stop-color:#8d55e4"/><stop offset=".518" style="stop-color:#8164e6"/><stop offset=".632" style="stop-color:#7079ea"/><stop offset=".738" style="stop-color:#5a94ee"/><stop offset=".837" style="stop-color:#3fb5f3"/><stop offset=".929" style="stop-color:#20dcf9"/><stop offset="1" style="stop-color:#03ffff"/></linearGradient><path d="M431.62,440.68c-2.79,0-5.06-2.27-5.06-5.06c0-2.79,2.27-5.06,5.06-5.06c2.79,0,5.06,2.27,5.06,5.06 C436.68,438.41,434.41,440.68,431.62,440.68z M431.62,433.25c-1.31,0-2.38,1.07-2.38,2.38s1.07,2.38,2.38,2.38 c1.31,0,2.38-1.07,2.38-2.38S432.93,433.25,431.62,433.25z" class="st149"/></g><g><path d="M451.12,435.63c0,2.05-1.67,3.72-3.72,3.72c-2.05,0-3.72-1.67-3.72-3.72c0-2.05,1.67-3.72,3.72-3.72 C449.45,431.91,451.12,433.57,451.12,435.63z" class="st18"/><linearGradient id="SVGID_147_" x1="442.341" x2="452.459" y1="435.626" y2="435.626" gradientUnits="userSpaceOnUse"><stop offset="0" style="stop-color:#964ae2"/><stop offset=".238" style="stop-color:#944de2"/><stop offset=".39" style="stop-color:#8d55e4"/><stop offset=".518" style="stop-color:#8164e6"/><stop offset=".632" style="stop-color:#7079ea"/><stop offset=".738" style="stop-color:#5a94ee"/><stop offset=".837" style="stop-color:#3fb5f3"/><stop offset=".929" style="stop-color:#20dcf9"/><stop offset="1" style="stop-color:#03ffff"/></linearGradient><path d="M447.4,440.68c-2.79,0-5.06-2.27-5.06-5.06c0-2.79,2.27-5.06,5.06-5.06c2.79,0,5.06,2.27,5.06,5.06 C452.46,438.41,450.19,440.68,447.4,440.68z M447.4,433.25c-1.31,0-2.38,1.07-2.38,2.38s1.07,2.38,2.38,2.38 c1.31,0,2.38-1.07,2.38-2.38S448.71,433.25,447.4,433.25z" class="st150"/></g><g><path d="M466.9,435.63c0,2.05-1.67,3.72-3.72,3.72c-2.05,0-3.72-1.67-3.72-3.72c0-2.05,1.67-3.72,3.72-3.72 C465.23,431.91,466.9,433.57,466.9,435.63z" class="st18"/><linearGradient id="SVGID_148_" x1="458.121" x2="468.238" y1="435.626" y2="435.626" gradientUnits="userSpaceOnUse"><stop offset="0" style="stop-color:#964ae2"/><stop offset=".238" style="stop-color:#944de2"/><stop offset=".39" style="stop-color:#8d55e4"/><stop offset=".518" style="stop-color:#8164e6"/><stop offset=".632" style="stop-color:#7079ea"/><stop offset=".738" style="stop-color:#5a94ee"/><stop offset=".837" style="stop-color:#3fb5f3"/><stop offset=".929" style="stop-color:#20dcf9"/><stop offset="1" style="stop-color:#03ffff"/></linearGradient><path d="M463.18,440.68c-2.79,0-5.06-2.27-5.06-5.06c0-2.79,2.27-5.06,5.06-5.06c2.79,0,5.06,2.27,5.06,5.06 C468.24,438.41,465.97,440.68,463.18,440.68z M463.18,433.25c-1.31,0-2.38,1.07-2.38,2.38s1.07,2.38,2.38,2.38 c1.31,0,2.38-1.07,2.38-2.38S464.49,433.25,463.18,433.25z" class="st151"/></g><g><path d="M482.68,435.63c0,2.05-1.67,3.72-3.72,3.72c-2.05,0-3.72-1.67-3.72-3.72c0-2.05,1.67-3.72,3.72-3.72 C481.01,431.91,482.68,433.57,482.68,435.63z" class="st18"/><linearGradient id="SVGID_149_" x1="473.9" x2="484.018" y1="435.626" y2="435.626" gradientUnits="userSpaceOnUse"><stop offset="0" style="stop-color:#964ae2"/><stop offset=".238" style="stop-color:#944de2"/><stop offset=".39" style="stop-color:#8d55e4"/><stop offset=".518" style="stop-color:#8164e6"/><stop offset=".632" style="stop-color:#7079ea"/><stop offset=".738" style="stop-color:#5a94ee"/><stop offset=".837" style="stop-color:#3fb5f3"/><stop offset=".929" style="stop-color:#20dcf9"/><stop offset="1" style="stop-color:#03ffff"/></linearGradient><path d="M478.96,440.68c-2.79,0-5.06-2.27-5.06-5.06c0-2.79,2.27-5.06,5.06-5.06c2.79,0,5.06,2.27,5.06,5.06 C484.02,438.41,481.75,440.68,478.96,440.68z M478.96,433.25c-1.31,0-2.38,1.07-2.38,2.38s1.07,2.38,2.38,2.38 c1.31,0,2.38-1.07,2.38-2.38S480.27,433.25,478.96,433.25z" class="st152"/></g><g><rect width="31.54" height="24.87" x="538.25" y="418.28" class="st18"/><linearGradient id="SVGID_150_" x1="536.954" x2="571.095" y1="430.717" y2="430.717" gradientUnits="userSpaceOnUse"><stop offset="0" style="stop-color:#964ae2"/><stop offset=".238" style="stop-color:#944de2"/><stop offset=".39" style="stop-color:#8d55e4"/><stop offset=".518" style="stop-color:#8164e6"/><stop offset=".632" style="stop-color:#7079ea"/><stop offset=".738" style="stop-color:#5a94ee"/><stop offset=".837" style="stop-color:#3fb5f3"/><stop offset=".929" style="stop-color:#20dcf9"/><stop offset="1" style="stop-color:#03ffff"/></linearGradient><path d="M571.1,444.46h-34.14v-27.48h34.14V444.46z M539.55,441.85h28.94v-22.27h-28.94V441.85z" class="st153"/></g><linearGradient id="SVGID_151_" x1="544.751" x2="563.297" y1="430.717" y2="430.717" gradientUnits="userSpaceOnUse"><stop offset="0" style="stop-color:#03bef2"/><stop offset="1" style="stop-color:#964ae2"/></linearGradient><path d="M562.92,437.84l-5.14-5.25c1.94-2.77,1.7-6.61-0.75-9.12c-2.77-2.83-7.3-2.87-10.13-0.11 c-2.83,2.77-2.87,7.3-0.1,10.13c2.44,2.5,6.27,2.82,9.07,0.96l5.14,5.25c0.51,0.52,1.35,0.53,1.87,0.02l0.02-0.02 C563.42,439.2,563.43,438.36,562.92,437.84z M547.97,432.35c-2.13-2.17-2.09-5.67,0.08-7.8c2.17-2.13,5.67-2.09,7.8,0.08 c2.13,2.17,2.09,5.67-0.08,7.8C553.6,434.56,550.1,434.52,547.97,432.35z" class="st154"/></g><g><linearGradient id="SVGID_152_" x1="539.157" x2="595.478" y1="304.954" y2="304.954" gradientUnits="userSpaceOnUse"><stop offset="0" style="stop-color:#ffca02"/><stop offset=".239" style="stop-color:#fa9a35"/><stop offset=".479" style="stop-color:#f67160"/><stop offset=".694" style="stop-color:#f35480"/><stop offset=".875" style="stop-color:#f14193"/><stop offset="1" style="stop-color:#f03b9a"/></linearGradient><path d="M577.07,323.36h-19.51c-10.12,0-18.4-8.28-18.4-18.4l0,0c0-10.12,8.28-18.4,18.4-18.4h19.51 c10.12,0,18.4,8.28,18.4,18.4l0,0C595.48,315.08,587.2,323.36,577.07,323.36z" class="st155"/><g><linearGradient id="SVGID_153_" x1="560.707" x2="578.807" y1="305.306" y2="305.306" gradientUnits="userSpaceOnUse"><stop offset="0" style="stop-color:#964ae2"/><stop offset="1" style="stop-color:#03ffff"/></linearGradient><polygon points="578.81 305.31 560.71 315.76 560.71 294.86" class="st156"/><linearGradient id="SVGID_154_" x1="560.207" x2="579.807" y1="305.306" y2="305.306" gradientUnits="userSpaceOnUse"><stop offset="0" style="stop-color:#03f3f8"/><stop offset="1" style="stop-color:#7f41db"/></linearGradient><path d="M560.21,316.62v-22.63l19.6,11.32L560.21,316.62z M561.21,295.72v19.17l16.6-9.58L561.21,295.72z" class="st157"/></g></g><g><g><linearGradient id="SVGID_155_" x1="194.707" x2="194.707" y1="437.496" y2="271.676" gradientUnits="userSpaceOnUse"><stop offset="0" style="stop-color:#964ae2"/><stop offset="1" style="stop-color:#03ffff"/></linearGradient><rect width="113.24" height="165.82" x="138.09" y="271.68" class="st158"/><linearGradient id="SVGID_156_" x1="137.085" x2="252.329" y1="354.586" y2="354.586" gradientUnits="userSpaceOnUse"><stop offset="0" style="stop-color:#7f41db"/><stop offset="1" style="stop-color:#03f3f8"/></linearGradient><path d="M252.33,438.5H137.09V270.68h115.24V438.5z M139.09,436.5h111.24V272.68H139.09V436.5z" class="st159"/></g><rect width="111.19" height="38.29" x="139.11" y="388.55" class="st160"/><g><linearGradient id="SVGID_157_" x1="138.085" x2="251.329" y1="287.69" y2="287.69" gradientUnits="userSpaceOnUse"><stop offset="0" style="stop-color:#7f41db"/><stop offset="1" style="stop-color:#02247d"/></linearGradient><rect width="113.24" height="32.03" x="138.09" y="271.68" class="st161"/><linearGradient id="SVGID_158_" x1="137.085" x2="252.329" y1="287.69" y2="287.69" gradientUnits="userSpaceOnUse"><stop offset="0" style="stop-color:#02247d"/><stop offset=".193" style="stop-color:#024792"/><stop offset=".616" style="stop-color:#039ec6"/><stop offset="1" style="stop-color:#03f3f8"/></linearGradient><path d="M252.33,304.71H137.09v-34.03h115.24V304.71z M139.09,302.71h111.24v-30.03H139.09V302.71z" class="st162"/></g><g><linearGradient id="SVGID_159_" x1="145.248" x2="172.119" y1="328.831" y2="328.831" gradientUnits="userSpaceOnUse"><stop offset="0" style="stop-color:#7f41db"/><stop offset="1" style="stop-color:#02247d"/></linearGradient><circle cx="158.68" cy="328.83" r="13.44" class="st163"/><linearGradient id="SVGID_160_" x1="144.248" x2="173.119" y1="328.831" y2="328.831" gradientUnits="userSpaceOnUse"><stop offset="0" style="stop-color:#02247d"/><stop offset=".193" style="stop-color:#024792"/><stop offset=".616" style="stop-color:#039ec6"/><stop offset="1" style="stop-color:#03f3f8"/></linearGradient><path d="M158.68,343.27c-7.96,0-14.44-6.48-14.44-14.44c0-7.96,6.48-14.44,14.44-14.44 c7.96,0,14.44,6.48,14.44,14.44C173.12,336.79,166.64,343.27,158.68,343.27z M158.68,316.4c-6.86,0-12.44,5.58-12.44,12.44 c0,6.86,5.58,12.44,12.44,12.44c6.86,0,12.44-5.58,12.44-12.44C171.12,321.97,165.54,316.4,158.68,316.4z" class="st164"/></g><g><linearGradient id="SVGID_161_" x1="145.248" x2="172.119" y1="368.263" y2="368.263" gradientUnits="userSpaceOnUse"><stop offset="0" style="stop-color:#ffca02"/><stop offset=".239" style="stop-color:#fa9a35"/><stop offset=".479" style="stop-color:#f67160"/><stop offset=".694" style="stop-color:#f35480"/><stop offset=".875" style="stop-color:#f14193"/><stop offset="1" style="stop-color:#f03b9a"/></linearGradient><circle cx="158.68" cy="368.26" r="13.44" class="st165"/><path d="M158.68,382.7c-7.96,0-14.44-6.48-14.44-14.44c0-7.96,6.48-14.44,14.44-14.44 c7.96,0,14.44,6.48,14.44,14.44C173.12,376.22,166.64,382.7,158.68,382.7z M158.68,355.83c-6.86,0-12.44,5.58-12.44,12.44 s5.58,12.44,12.44,12.44c6.86,0,12.44-5.58,12.44-12.44S165.54,355.83,158.68,355.83z" class="st18"/></g><g><linearGradient id="SVGID_162_" x1="145.248" x2="172.119" y1="407.695" y2="407.695" gradientUnits="userSpaceOnUse"><stop offset="0" style="stop-color:#7f41db"/><stop offset="1" style="stop-color:#02247d"/></linearGradient><path d="M172.12,407.69c0,7.42-6.02,13.44-13.44,13.44c-7.42,0-13.44-6.01-13.44-13.44 c0-7.42,6.02-13.43,13.44-13.43C166.1,394.26,172.12,400.27,172.12,407.69z" class="st166"/><linearGradient id="SVGID_163_" x1="144.248" x2="173.119" y1="407.695" y2="407.695" gradientUnits="userSpaceOnUse"><stop offset="0" style="stop-color:#02247d"/><stop offset=".193" style="stop-color:#024792"/><stop offset=".616" style="stop-color:#039ec6"/><stop offset="1" style="stop-color:#03f3f8"/></linearGradient><path d="M158.68,422.13c-7.96,0-14.44-6.48-14.44-14.43c0-7.96,6.48-14.44,14.44-14.44 c7.96,0,14.44,6.48,14.44,14.44C173.12,415.65,166.64,422.13,158.68,422.13z M158.68,395.26c-6.86,0-12.44,5.58-12.44,12.44 c0,6.86,5.58,12.43,12.44,12.43c6.86,0,12.44-5.58,12.44-12.43C171.12,400.84,165.54,395.26,158.68,395.26z" class="st167"/></g><g><g><linearGradient id="SVGID_164_" x1="152.901" x2="236.513" y1="296.811" y2="296.811" gradientUnits="userSpaceOnUse"><stop offset="0" style="stop-color:#964ae2"/><stop offset="1" style="stop-color:#03ffff"/></linearGradient><rect width="83.61" height="3.82" x="152.9" y="294.9" class="st168"/><linearGradient id="SVGID_165_" x1="152.401" x2="237.013" y1="296.811" y2="296.811" gradientUnits="userSpaceOnUse"><stop offset="0" style="stop-color:#03f3f8"/><stop offset="1" style="stop-color:#7f41db"/></linearGradient><path d="M237.01,299.22H152.4v-4.82h84.61V299.22z M153.4,298.22h82.61v-2.82H153.4V298.22z" class="st169"/></g></g><g><rect width="57.24" height="3.82" x="183.69" y="361.68" class="st170"/></g><g><rect width="38.16" height="3.82" x="193.23" y="371.22" class="st170"/></g><g><rect width="57.24" height="3.82" x="183.69" y="322.15" class="st170"/></g><g><rect width="38.16" height="3.82" x="193.23" y="331.69" class="st170"/></g><g><rect width="57.24" height="3.82" x="183.69" y="401.42" class="st170"/></g><g><rect width="38.16" height="3.82" x="193.23" y="410.96" class="st170"/></g></g></g></g></svg>