<svg xmlns="http://www.w3.org/2000/svg" xmlns:xlink="http://www.w3.org/1999/xlink" id="Layer_1" width="85" height="85" x="0" y="0" enable-background="new 0 0 85 85" version="1.1" viewBox="0 0 85 85" xml:space="preserve"><g><path fill="none" stroke="#394553" stroke-linejoin="round" stroke-miterlimit="10" stroke-width="2.5" d="M62.373,34.586h3.434 c1.65,0,3,1.35,3,3v32.417c0,1.649-1.35,3-3,3H19.193c-1.65,0-3-1.351-3-3V37.586c0-1.65,1.35-3,3-3h18.653"/><path fill="none" stroke="#394553" stroke-linecap="round" stroke-miterlimit="10" stroke-width="2.5" d="M25.006,52.725"/><path fill="none" stroke="#394553" stroke-linecap="round" stroke-miterlimit="10" stroke-width="2.5" d="M25.006,42.636"/><polyline fill="none" stroke="#394553" stroke-linejoin="round" stroke-miterlimit="10" stroke-width="2.5" points="40.312 72.959 40.312 52.446 45.225 48.667"/><line x1="40.224" x2="28.057" y1="62.632" y2="62.632" fill="none" stroke="#394553" stroke-linecap="round" stroke-miterlimit="10" stroke-width="2.5"/><line x1="59.155" x2="51.525" y1="55.729" y2="55.72" fill="none" stroke="#394553" stroke-miterlimit="10" stroke-width="2.5"/><line x1="35.964" x2="16.266" y1="43.743" y2="43.733" fill="none" stroke="#394553" stroke-miterlimit="10" stroke-width="2.5"/><line x1="27.925" x2="27.925" y1="73.006" y2="34.625" fill="none" stroke="#394553" stroke-miterlimit="10" stroke-width="2.5"/><polyline fill="none" stroke="#394553" stroke-linejoin="round" stroke-miterlimit="10" stroke-width="2.5" points="59.198 72.794 59.198 46.808 68.766 46.808"/><path fill="none" stroke="#394553" stroke-linejoin="round" stroke-miterlimit="10" stroke-width="2.5" d="M61.276,23.085 c0,6.125-11.091,24.802-11.091,24.802s-11.09-18.677-11.09-24.802s4.965-11.09,11.09-11.09S61.276,16.96,61.276,23.085z"/><circle cx="50.186" cy="23.085" r="4.736" fill="none" stroke="#394553" stroke-linejoin="round" stroke-miterlimit="10" stroke-width="2.5"/></g></svg>