<svg xmlns="http://www.w3.org/2000/svg" xmlns:xlink="http://www.w3.org/1999/xlink" id="Layer_1" width="85" height="85" x="0" y="0" enable-background="new 0 0 85 85" version="1.1" viewBox="0 0 85 85" xml:space="preserve"><g><path fill="none" stroke="#394553" stroke-linejoin="round" stroke-miterlimit="10" stroke-width="2.5" d="M32.079,19.983h33.935 c3.377,0,6.143,2.765,6.143,6.144v32.748c0,3.379-2.766,6.143-6.143,6.143H32.079"/><g><g><line x1="43.299" x2="37.26" y1="42.246" y2="42.246" fill="none" stroke="#394553" stroke-linejoin="round" stroke-miterlimit="10" stroke-width="2.5"/><line x1="43.299" x2="37.26" y1="49.932" y2="49.932" fill="none" stroke="#394553" stroke-linejoin="round" stroke-miterlimit="10" stroke-width="2.5"/><line x1="43.299" x2="37.26" y1="57.617" y2="57.617" fill="none" stroke="#394553" stroke-linejoin="round" stroke-miterlimit="10" stroke-width="2.5"/></g><g><line x1="64.066" x2="58.029" y1="42.246" y2="42.246" fill="none" stroke="#394553" stroke-linejoin="round" stroke-miterlimit="10" stroke-width="2.5"/><line x1="64.066" x2="58.029" y1="49.932" y2="49.932" fill="none" stroke="#394553" stroke-linejoin="round" stroke-miterlimit="10" stroke-width="2.5"/><line x1="64.066" x2="58.029" y1="57.617" y2="57.617" fill="none" stroke="#394553" stroke-linejoin="round" stroke-miterlimit="10" stroke-width="2.5"/></g><g><line x1="53.682" x2="47.645" y1="42.246" y2="42.246" fill="none" stroke="#394553" stroke-linejoin="round" stroke-miterlimit="10" stroke-width="2.5"/><line x1="53.682" x2="47.645" y1="49.932" y2="49.932" fill="none" stroke="#394553" stroke-linejoin="round" stroke-miterlimit="10" stroke-width="2.5"/><line x1="53.682" x2="47.645" y1="57.617" y2="57.617" fill="none" stroke="#394553" stroke-linejoin="round" stroke-miterlimit="10" stroke-width="2.5"/></g></g><rect width="24.061" height="7.243" x="38.633" y="27.384" fill="none" stroke="#394553" stroke-linecap="round" stroke-linejoin="round" stroke-miterlimit="10" stroke-width="2.5"/><path fill="none" stroke="#394553" stroke-miterlimit="10" stroke-width="2.5" d="M21.011,19.407c-4.461,0-8.166,3.762-8.166,8.359 v29.468c0,4.598,3.705,8.359,8.166,8.359s8.166-3.762,8.166-8.359V27.766C29.177,23.168,25.472,19.407,21.011,19.407z"/></g></svg>